<svg width="51" height="21" viewBox="0 0 51 21" fill="none" xmlns="http://www.w3.org/2000/svg">
<path d="M24.1544 9.83585V15.6805H22.2874V1.24682H27.2392C27.8303 1.23456 28.4179 1.33866 28.9683 1.55313C29.5186 1.76759 30.0208 2.08817 30.4457 2.49636C30.8749 2.87977 31.2165 3.34998 31.4476 3.87539C31.6786 4.4008 31.7937 4.96923 31.7851 5.54248C31.7974 6.1188 31.6841 6.69095 31.4529 7.21971C31.2217 7.74846 30.8781 8.22132 30.4457 8.60588C29.5798 9.42586 28.511 9.83546 27.2392 9.83469H24.1544V9.83585ZM24.1544 3.02382V8.0623H27.2856C27.6288 8.07241 27.9704 8.01125 28.2885 7.88275C28.6066 7.75425 28.8942 7.56122 29.1329 7.31603C29.3704 7.08678 29.5591 6.81257 29.688 6.50963C29.8169 6.20668 29.8833 5.88115 29.8833 5.55227C29.8833 5.2234 29.8169 4.89787 29.688 4.59492C29.5591 4.29197 29.3704 4.01777 29.1329 3.78852C28.8972 3.53816 28.6106 3.34041 28.2922 3.20837C27.9737 3.07634 27.6306 3.01304 27.2856 3.02267H24.1544V3.02382Z" fill="#5F6368"/>
<path d="M36.0874 5.48242C37.4674 5.48242 38.5567 5.84865 39.3554 6.5811C40.154 7.31355 40.5529 8.31779 40.5522 9.59382V15.6803H38.7663V14.3098H38.6851C37.912 15.4385 36.8837 16.0028 35.6003 16.0028C34.5048 16.0028 33.5883 15.6803 32.8507 15.0354C32.4968 14.7394 32.2138 14.3687 32.0224 13.9503C31.831 13.5319 31.736 13.0764 31.7444 12.6169C31.7444 11.595 32.1333 10.7823 32.911 10.1789C33.6888 9.5754 34.7271 9.2729 36.0259 9.27136C37.1346 9.27136 38.0476 9.4729 38.7651 9.87598V9.45217C38.7672 9.13894 38.6991 8.82917 38.5657 8.54532C38.4323 8.26147 38.237 8.01065 37.9939 7.81106C37.5002 7.36869 36.8567 7.12731 36.1918 7.13504C35.1488 7.13504 34.3235 7.5719 33.7159 8.44563L32.0714 7.4172C32.976 6.12735 34.3146 5.48242 36.0874 5.48242ZM33.6718 12.6572C33.6705 12.8932 33.7261 13.1261 33.8338 13.3364C33.9415 13.5467 34.0983 13.7285 34.2911 13.8665C34.704 14.189 35.2165 14.3599 35.7418 14.3501C36.5297 14.3488 37.2849 14.0374 37.842 13.4841C38.4605 12.906 38.7697 12.2277 38.7697 11.4491C38.1876 10.9885 37.3758 10.7581 36.3344 10.7581C35.576 10.7581 34.9436 10.9397 34.4372 11.3029C33.9258 11.6714 33.6718 12.1194 33.6718 12.6572Z" fill="#5F6368"/>
<path d="M50.8037 5.80493L44.5692 20.0336H42.6419L44.9554 15.055L40.856 5.80493H42.8854L45.8484 12.8991H45.889L48.7708 5.80493H50.8037Z" fill="#5F6368"/>
<path d="M16.6096 8.57591C16.6103 8.01086 16.5622 7.44678 16.4658 6.88989H8.59155V10.0834H13.1015C13.0093 10.5935 12.8139 11.0797 12.5273 11.5128C12.2407 11.9458 11.8688 12.3168 11.4339 12.6032V14.6762H14.1255C15.7015 13.2332 16.6096 11.0992 16.6096 8.57591Z" fill="#4285F4"/>
<path d="M8.59156 16.6788C10.8448 16.6788 12.742 15.944 14.1255 14.6772L11.4339 12.6043C10.6848 13.1087 9.71993 13.3966 8.59156 13.3966C6.41368 13.3966 4.56516 11.9386 3.90414 9.97388H1.13135V12.1102C1.8263 13.4835 2.89195 14.638 4.2093 15.4447C5.52665 16.2515 7.04387 16.6787 8.59156 16.6788Z" fill="#34A853"/>
<path d="M3.90407 9.97385C3.55462 8.94432 3.55462 7.82942 3.90407 6.79989V4.66357H1.13128C0.546659 5.81886 0.242187 7.09391 0.242188 8.38687C0.242187 9.67983 0.546659 10.9549 1.13128 12.1102L3.90407 9.97385Z" fill="#FBBC04"/>
<path d="M8.59156 3.37724C9.7823 3.35792 10.9329 3.8047 11.7946 4.62102L14.1777 2.25438C12.6666 0.84484 10.6646 0.070981 8.59156 0.0950264C7.04387 0.0950965 5.52665 0.522353 4.2093 1.32909C2.89195 2.13584 1.8263 3.29031 1.13135 4.66363L3.90414 6.79995C4.56516 4.83523 6.41368 3.37724 8.59156 3.37724Z" fill="#EA4335"/>
</svg>
