<svg width="77" height="26" viewBox="0 0 77 26" fill="none" xmlns="http://www.w3.org/2000/svg">
<path fill-rule="evenodd" clip-rule="evenodd" d="M0 0.976074H76.9059V25.1872H0V0.976074Z" fill="#CC1626"/>
<path fill-rule="evenodd" clip-rule="evenodd" d="M26.8344 12.257C27.1162 12.257 27.3926 12.1826 27.6319 12.0337C28.105 11.7466 28.3655 11.2469 28.3655 10.694C28.3655 10.1252 28.089 9.60423 27.5893 9.32248C27.3607 9.18957 27.1002 9.12046 26.8344 9.12046C26.5633 9.12046 26.3028 9.18957 26.0689 9.32779C25.5798 9.61486 25.3087 10.1305 25.3087 10.694C25.3087 11.2416 25.5639 11.7413 26.0317 12.0284C26.2709 12.1826 26.5474 12.257 26.8344 12.257ZM19.9341 10.0933V7.57346H21.2897C21.6352 7.57346 21.9329 7.70105 22.1775 7.94559V7.95091C22.4327 8.19013 22.5496 8.48252 22.5496 8.82807C22.5496 9.17894 22.422 9.47133 22.1775 9.72119C21.9329 9.96573 21.6352 10.0933 21.2897 10.0933H21.0451H19.9341ZM19.9341 11.3532H21.0451H21.2897C21.6246 11.3532 21.9542 11.2841 22.2678 11.1512C22.5656 11.0183 22.8367 10.8429 23.0706 10.609C23.2992 10.3804 23.4799 10.1093 23.6075 9.81156C23.7457 9.49791 23.8095 9.16831 23.8095 8.82807C23.8095 8.49316 23.7457 8.16355 23.6075 7.85522C23.4799 7.55751 23.2992 7.28639 23.0706 7.05779C22.8367 6.8292 22.5656 6.64845 22.2678 6.51555C21.9542 6.38264 21.6246 6.31885 21.2897 6.31885H18.6794V13.2936H19.9341V11.3532ZM28.4452 12.6982C28.0093 13.1607 27.3873 13.4106 26.7387 13.4106C25.2236 13.4106 24.1179 12.1879 24.1179 10.694C24.1179 9.20552 25.2183 7.96686 26.7387 7.96686C27.3873 7.96686 28.0093 8.22203 28.4452 8.68985V8.02533H29.6307V13.3468H28.4452V12.6982ZM34.6758 12.6132C34.2983 13.0704 33.7082 13.2883 33.1128 13.2883C31.5605 13.2883 30.7843 12.2145 30.7843 10.7366V8.03065H31.9805V10.6728C31.9805 11.5553 32.3367 12.1347 33.267 12.1347C34.2664 12.1347 34.6864 11.4117 34.6864 10.4761V8.03065H35.8666V12.6079C35.8666 14.2027 34.8778 15.3032 33.2563 15.3032C32.4111 15.3032 31.6083 15.032 30.9598 14.4898L30.8907 14.4366L31.5818 13.6977L31.6402 13.7296C32.1506 14.0379 32.6503 14.2027 33.2563 14.2027C34.1441 14.2027 34.6758 13.7243 34.6758 12.8258V12.6132Z" fill="white"/>
<path fill-rule="evenodd" clip-rule="evenodd" d="M54.9571 9.4659L54.9943 9.39148C54.9996 9.38616 54.9996 9.37553 55.005 9.37021V9.3649L55.0422 9.29579H55.0475L55.0581 9.27452L55.0688 9.26389L55.0794 9.23731H55.0847C55.0953 9.21604 55.106 9.2001 55.1166 9.18415L55.1219 9.17351C55.1272 9.1682 55.1325 9.15757 55.1379 9.14693L55.1432 9.14162L55.1644 9.11504V9.10972C55.1857 9.07782 55.207 9.05124 55.2282 9.02466V9.01935C55.2389 9.00871 55.2442 9.0034 55.2495 8.99276H55.2548C55.7545 8.33888 56.5254 7.95611 57.3494 7.95611H57.461C58.9495 7.98801 60.0234 9.2001 60.0234 10.6727C60.0234 12.1665 58.923 13.3999 57.4025 13.3999C56.8178 13.3999 56.2436 13.15 55.8609 12.7088V15.218H54.6754V10.5557H54.6807C54.6913 10.2261 54.7657 9.90183 54.8986 9.59349L54.904 9.58286L54.9093 9.56159L54.9199 9.54565L54.9305 9.51906L54.9412 9.49248L54.9571 9.4659ZM37.0576 6.30811H38.3175V13.2829H37.0576V6.30811ZM40.0347 9.80614L42.9426 13.3042H41.284L38.4823 9.80614L41.284 6.30811H42.9426L40.0347 9.80614ZM44.0111 11.0235C44.0537 11.8582 44.7235 12.2888 45.5316 12.2888C46.0951 12.2888 46.6586 12.1346 47.1477 11.8475L47.2008 11.8156L47.8654 12.5227L47.7909 12.5812C47.137 13.0809 46.3662 13.3892 45.5316 13.3892C43.9367 13.3892 42.7831 12.2728 42.7831 10.6727C42.7831 9.10972 43.8889 7.94548 45.4678 7.94548C46.5416 7.94548 47.4029 8.46115 47.8281 9.44464C48.0089 9.86993 48.0621 10.5238 47.9238 10.9651L47.9026 11.0235H44.0111ZM49.8749 11.0235C49.9174 11.8582 50.5872 12.2888 51.3953 12.2888C51.9641 12.2888 52.5276 12.1346 53.0114 11.8475L53.0699 11.8156L53.7291 12.5227L53.66 12.5812C53.0008 13.0809 52.2299 13.3892 51.3953 13.3892C49.8004 13.3892 48.6522 12.2728 48.6522 10.6727C48.6522 9.10972 49.7526 7.94548 51.3368 7.94548C52.4054 7.94548 53.2666 8.46115 53.6919 9.44464C53.8779 9.86993 53.9258 10.5238 53.7876 10.9651L53.7716 11.0235H49.8749ZM61.9532 11.0235C61.9957 11.8582 62.6655 12.2888 63.4736 12.2888C64.0371 12.2888 64.6059 12.1346 65.0897 11.8475L65.1482 11.8103L65.8074 12.5227L65.733 12.5812C65.0791 13.0809 64.3082 13.3892 63.4736 13.3892C61.8788 13.3892 60.7305 12.2728 60.7305 10.6727C60.7305 9.10972 61.8309 7.94548 63.4151 7.94548C64.4837 7.94548 65.3449 8.46115 65.7702 9.44464C65.9562 9.86993 66.0041 10.5238 65.8659 10.9651L65.8499 11.0235H61.9532ZM55.8502 10.6727C55.8502 12.8363 58.8326 12.6556 58.8326 10.6727C58.8326 8.68974 55.8502 8.50899 55.8502 10.6727ZM44.0803 10.0773H46.8128C46.7968 9.98689 46.7596 9.89651 46.7224 9.81145C46.4885 9.31705 46.026 9.04593 45.4784 9.04593C44.883 9.04593 44.3195 9.37021 44.1175 9.95499C44.1015 9.9922 44.0909 10.0347 44.0803 10.0773ZM49.944 10.0773H52.6818C52.6605 9.98689 52.6286 9.89651 52.5861 9.81145C52.3522 9.31705 51.8897 9.04593 51.3474 9.04593C50.7467 9.04593 50.1832 9.37021 49.9812 9.95499C49.9706 9.9922 49.9546 10.0347 49.944 10.0773ZM62.0223 10.0773H64.7601C64.7388 9.98689 64.7069 9.89651 64.6644 9.81145C64.4305 9.31705 63.968 9.04593 63.4258 9.04593C62.825 9.04593 62.2615 9.37021 62.0595 9.94967C62.0436 9.9922 62.0329 10.0347 62.0223 10.0773ZM68.0083 8.72164C68.4814 8.19534 69.1459 7.96143 69.8636 7.96143H70.1401L70.1454 9.14693H69.6297C68.4921 9.14693 68.0189 9.92309 68.0189 10.9863V13.3254H66.7909V8.01991H68.0083V8.72164Z" fill="#FFCC00"/>
<path fill-rule="evenodd" clip-rule="evenodd" d="M20.3806 17.7697H19.0197V19.8856H18.6794V17.4508H20.7262V19.8856H20.3806V17.7697ZM23.1503 17.7697H22.1296C22.1296 18.2535 22.1243 18.8861 22.002 19.3539C21.9436 19.5719 21.8426 19.8058 21.614 19.8856C21.5289 19.9175 21.4438 19.9228 21.3588 19.9228C21.279 19.9228 21.1621 19.9068 21.0877 19.8856L21.0345 19.8696L21.0983 19.5453L21.1621 19.5613C21.1993 19.5719 21.279 19.5932 21.3216 19.5932C21.3588 19.5932 21.4013 19.5879 21.4385 19.5772C21.598 19.5347 21.6565 19.3327 21.6884 19.1945C21.8 18.7373 21.8 18.1046 21.8 17.6315V17.4508H23.4959V19.8856H23.1503V17.7697ZM25.8084 18.413V18.3917C25.8084 17.9452 25.5373 17.7432 25.1067 17.7432C24.8515 17.7432 24.6282 17.8069 24.4049 17.9186L24.3465 17.9505L24.2189 17.6421L24.272 17.6156C24.5485 17.488 24.809 17.4135 25.1173 17.4135C25.3991 17.4135 25.6915 17.4773 25.8935 17.6847C26.0795 17.8707 26.1486 18.1206 26.1486 18.3811V19.8856H25.8084V19.6038C25.5958 19.8271 25.3034 19.9387 24.9844 19.9387C24.4953 19.9387 24.0275 19.6835 24.0275 19.1413C24.0275 18.5512 24.5857 18.3279 25.1014 18.3279C25.3512 18.3279 25.5745 18.3545 25.8084 18.413ZM27.4086 17.7697H26.542V17.4508H28.6207V17.7697H27.7488V19.8856H27.4086V17.7697ZM29.2586 18.817C29.3171 19.2636 29.636 19.6091 30.1039 19.6091C30.4122 19.6091 30.6461 19.4869 30.8534 19.2636L30.896 19.221L31.1405 19.439L31.098 19.4869C30.8162 19.7846 30.5132 19.9387 30.0932 19.9387C29.3809 19.9387 28.8971 19.3486 28.8971 18.6628C28.8971 17.9983 29.3649 17.3923 30.056 17.3923C30.779 17.3923 31.183 17.993 31.183 18.6682C31.183 18.7001 31.1777 18.732 31.1777 18.7639L31.1671 18.817H29.2586ZM29.4553 17.185V16.7012H29.8912V17.185H29.4553ZM30.1996 17.185V16.7012H30.6302V17.185H30.1996ZM32.3685 18.514L31.3851 17.4508H31.8316L33.0703 18.8276V17.4508H33.4158V18.8276L34.6545 17.4508H35.1011L34.1176 18.514L35.1436 19.8856H34.7183L33.889 18.7639L33.4158 19.2795V19.8856H33.0703V19.2795L32.5971 18.7639L31.7678 19.8856H31.3478L32.3685 18.514ZM35.8453 18.4768H37.2647V17.4508H37.6103V19.8856H37.2647V18.8011H35.8453V19.8856H35.5051V17.4508H35.8453V18.4768ZM39.9228 18.413V18.3917C39.9228 17.9452 39.6464 17.7432 39.2211 17.7432C38.9659 17.7432 38.7426 17.8069 38.5193 17.9186L38.4609 17.9505L38.3333 17.6421L38.3864 17.6156C38.6629 17.488 38.9234 17.4135 39.2317 17.4135C39.5135 17.4135 39.8005 17.4773 40.0079 17.6847C40.1939 17.8707 40.263 18.1206 40.263 18.3811V19.8856H39.9228V19.6038C39.7048 19.8271 39.4178 19.9387 39.0988 19.9387C38.6044 19.9387 38.1419 19.6835 38.1419 19.1413C38.1419 18.5512 38.7001 18.3279 39.2158 18.3279C39.4656 18.3279 39.6836 18.3545 39.9228 18.413ZM41.4379 18.9393C41.0924 18.8436 40.8159 18.5831 40.8159 18.2003C40.8159 17.6847 41.2572 17.4508 41.725 17.4508H42.8254V19.8856H42.4799V18.9924H41.8047L41.1189 19.8856H40.6883L41.4379 18.9393ZM46.6158 17.7697H45.2549V19.8856H44.9094V17.4508H46.9561V19.8856H46.6158V17.7697ZM49.3856 17.7697H48.3649C48.3649 18.2535 48.3595 18.8861 48.232 19.3539C48.1735 19.5719 48.0778 19.8058 47.8439 19.8856C47.7641 19.9175 47.6791 19.9228 47.594 19.9228C47.5143 19.9228 47.3973 19.9068 47.3229 19.8856L47.2697 19.8696L47.3335 19.5453L47.3973 19.5613C47.4345 19.5719 47.5143 19.5932 47.5568 19.5932C47.594 19.5932 47.6366 19.5879 47.6738 19.5772C47.8279 19.5347 47.8864 19.3327 47.9236 19.1945C48.0299 18.7373 48.0299 18.1046 48.0299 17.6315V17.4508H49.7258V19.8856H49.3856V17.7697ZM52.0436 18.413V18.3917C52.0436 17.9452 51.7672 17.7432 51.3419 17.7432C51.0867 17.7432 50.8635 17.8069 50.6402 17.9186L50.5817 17.9505L50.4541 17.6421L50.5073 17.6156C50.7837 17.488 51.0442 17.4135 51.3525 17.4135C51.6343 17.4135 51.9214 17.4773 52.1287 17.6847C52.3148 17.8707 52.3786 18.1206 52.3786 18.3811V19.8856H52.0436V19.6038C51.8257 19.8271 51.5333 19.9387 51.2143 19.9387C50.7252 19.9387 50.2627 19.6835 50.2627 19.1413C50.2627 18.5512 50.8209 18.3279 51.3366 18.3279C51.5865 18.3279 51.8044 18.3545 52.0436 18.413ZM53.6438 17.7697H52.772V17.4508H54.8506V17.7697H53.984V19.8856H53.6438V17.7697ZM56.7006 19.742C56.5358 19.8643 56.371 19.9387 56.1477 19.9387C55.4354 19.9387 55.143 19.2902 55.143 18.6575C55.143 18.0302 55.4354 17.3923 56.1477 17.3923C56.3763 17.3923 56.5358 17.4667 56.7006 17.5943V16.5842H57.0408V17.5943C57.2003 17.4667 57.3651 17.3923 57.5937 17.3923C58.3061 17.3923 58.5985 18.0355 58.5985 18.6682C58.5985 19.2955 58.3008 19.9387 57.5937 19.9387C57.3492 19.9387 57.2056 19.8749 57.0408 19.7473V20.6139H56.7006V19.742ZM60.2624 19.9387C59.5501 19.9387 59.0131 19.3699 59.0131 18.6682C59.0131 17.9664 59.5607 17.3923 60.2677 17.3923C60.9801 17.3923 61.517 17.9664 61.517 18.6682C61.517 19.3646 60.9695 19.9387 60.2624 19.9387ZM62.4261 17.8442C62.6494 17.5677 62.9365 17.3923 63.3192 17.3923C64.0209 17.3923 64.5047 17.9877 64.5047 18.6682C64.5047 19.3433 64.0156 19.9387 63.3192 19.9387C62.9471 19.9387 62.6494 19.7792 62.4261 19.5081V20.6139H62.0805V17.4508H62.4261V17.8442ZM66.2856 18.7373L67.2 17.4508H67.4871V19.8856H67.1468V18.0781L66.275 19.2795L65.4138 18.0834V19.8856H65.0789V17.4508H65.3713L66.2856 18.7373ZM69.8049 18.413V18.3917C69.8049 17.9452 69.5285 17.7432 69.1032 17.7432C68.848 17.7432 68.6247 17.8069 68.4015 17.9186L68.343 17.9505L68.2154 17.6421L68.2686 17.6156C68.545 17.488 68.8055 17.4135 69.1138 17.4135C69.3956 17.4135 69.6827 17.4773 69.89 17.6847C70.076 17.8707 70.1452 18.1206 70.1452 18.3811V19.8856H69.8049V19.6038C69.587 19.8271 69.2999 19.9387 68.9809 19.9387C68.4865 19.9387 68.024 19.6835 68.024 19.1413C68.024 18.5512 68.5822 18.3279 69.0979 18.3279C69.3477 18.3279 69.5657 18.3545 69.8049 18.413ZM25.8137 18.7426C25.5745 18.6841 25.3406 18.6522 25.0854 18.6522C24.7664 18.6522 24.389 18.7585 24.389 19.1413C24.389 19.4815 24.692 19.6091 24.995 19.6091C25.3778 19.6091 25.8137 19.3858 25.8137 18.9552V18.7426ZM29.2639 18.498H30.8162C30.7631 18.0781 30.5132 17.7166 30.0507 17.7166C29.6041 17.7166 29.3171 18.0887 29.2639 18.498ZM39.9281 18.7426C39.6836 18.6841 39.4497 18.6522 39.1998 18.6522C38.8808 18.6522 38.5034 18.7585 38.5034 19.1413C38.5034 19.4815 38.8064 19.6091 39.1094 19.6091C39.4922 19.6091 39.9281 19.3858 39.9281 18.9552V18.7426ZM42.4799 18.6735V17.7697H41.7569C41.4698 17.7697 41.1774 17.8867 41.1774 18.211C41.1774 18.5353 41.4804 18.6735 41.7675 18.6735H42.4799ZM52.049 18.7426C51.8044 18.6841 51.5705 18.6522 51.3206 18.6522C51.0017 18.6522 50.6242 18.7585 50.6242 19.1413C50.6242 19.4815 50.9272 19.6091 51.2303 19.6091C51.613 19.6091 52.049 19.3858 52.049 18.9552V18.7426ZM56.7006 19.3646V17.9664C56.5517 17.8176 56.3869 17.7272 56.169 17.7272C55.6374 17.7272 55.4991 18.2269 55.4991 18.6735C55.4991 19.1413 55.6214 19.6038 56.169 19.6038C56.3869 19.6038 56.5517 19.5187 56.7006 19.3646ZM57.0408 17.9664V19.3646C57.1897 19.5187 57.3545 19.6038 57.5724 19.6038C58.12 19.6038 58.237 19.1307 58.237 18.6682C58.237 18.2216 58.0987 17.7272 57.5724 17.7272C57.3545 17.7272 57.1897 17.8176 57.0408 17.9664ZM60.2677 19.6091C60.7781 19.6091 61.1555 19.1572 61.1555 18.6682C61.1555 18.1684 60.7728 17.7219 60.2624 17.7219C59.7521 17.7219 59.3746 18.1684 59.3746 18.6682C59.3746 19.1732 59.7521 19.6091 60.2677 19.6091ZM63.2979 19.6038C63.8349 19.6038 64.1432 19.1838 64.1432 18.6682C64.1432 18.1684 63.8136 17.7272 63.2979 17.7272C62.7823 17.7272 62.4101 18.1738 62.4101 18.6735C62.4101 19.1679 62.7876 19.6038 63.2979 19.6038ZM69.8102 18.7426C69.5657 18.6841 69.3318 18.6522 69.0819 18.6522C68.763 18.6522 68.3855 18.7585 68.3855 19.1413C68.3855 19.4815 68.6885 19.6091 68.9916 19.6091C69.3743 19.6091 69.8102 19.3858 69.8102 18.9552V18.7426Z" fill="white"/>
<path fill-rule="evenodd" clip-rule="evenodd" d="M10.2746 13.3202L13.778 9.81688L10.2746 6.31885C11.1465 6.31885 12.0183 6.31885 12.8902 6.31885L16.3935 9.81688L12.8902 13.3202C12.0183 13.3202 11.1465 13.3202 10.2746 13.3202ZM5.66553 13.3202L9.16887 9.81688L5.66553 6.31885C6.53738 6.31885 7.40923 6.31885 8.28108 6.31885L11.7844 9.81688L8.28108 13.3202C7.40923 13.3202 6.53738 13.3202 5.66553 13.3202Z" fill="white"/>
</svg>
