<svg width="47" height="29" viewBox="0 0 47 29" fill="none" xmlns="http://www.w3.org/2000/svg">
<path d="M46.9481 14.3013C46.9481 21.9207 40.7529 28.1871 33.0623 28.1871C25.4429 28.1871 19.1765 21.9207 19.1765 14.3013C19.1765 6.68193 25.3717 0.415527 32.9911 0.415527C40.7529 0.415527 46.9481 6.68193 46.9481 14.3013Z" fill="#F9B50B"/>
<path d="M28.3625 14.3725C28.3625 13.3756 28.2201 12.3787 28.0776 11.4529H19.5325C19.6037 10.9545 19.7462 10.5272 19.8886 9.95755H27.508C27.3655 9.45909 27.1519 8.96063 26.9383 8.46216H20.4583C20.6719 7.9637 20.9567 7.53644 21.2416 6.96677H26.155C25.8702 6.46831 25.5141 5.96984 25.0869 5.47138H22.3809C22.8082 4.97291 23.2354 4.54566 23.8051 4.04719C21.384 1.7685 18.1084 0.415527 14.4767 0.415527C6.92851 0.629155 0.662109 6.68193 0.662109 14.3013C0.662109 21.9207 6.85731 28.1871 14.5479 28.1871C18.1796 28.1871 21.384 26.7629 23.8763 24.5554C24.3748 24.1282 24.802 23.6297 25.3005 23.06H22.4521C22.0961 22.6328 21.74 22.1343 21.4552 21.6359H26.2974C26.5822 21.2086 26.8671 20.7101 27.0807 20.1405H20.6007C20.387 19.7132 20.1734 19.2147 20.031 18.6451H27.6504C28.0776 17.3633 28.3625 15.9391 28.3625 14.3725Z" fill="#C8191C"/>
<path d="M19.4615 17.8616L19.6751 16.5799C19.6039 16.5799 19.4615 16.6511 19.3191 16.6511C18.8206 16.6511 18.7494 16.3662 18.8206 16.2238L19.2478 13.6603H20.0311L20.2448 12.2361H19.5327L19.6751 11.3816H18.1797C18.1797 11.3816 17.3252 16.2238 17.3252 16.7935C17.3252 17.648 17.8237 18.0753 18.5358 18.0753C18.963 18.0753 19.3191 17.9328 19.4615 17.8616Z" fill="white"/>
<path d="M19.9597 15.5121C19.9597 17.5771 21.3839 18.0756 22.5232 18.0756C23.5914 18.0756 24.0898 17.862 24.0898 17.862L24.3747 16.4378C24.3747 16.4378 23.5914 16.7938 22.8081 16.7938C21.1703 16.7938 21.4551 15.5833 21.4551 15.5833H24.4459C24.4459 15.5833 24.6595 14.6576 24.6595 14.2303C24.6595 13.3046 24.1611 12.094 22.5232 12.094C21.0991 12.0228 19.9597 13.6606 19.9597 15.5121ZM22.5232 13.3758C23.3065 13.3758 23.1641 14.3015 23.1641 14.3727H21.5263C21.5975 14.3015 21.7399 13.3758 22.5232 13.3758Z" fill="white"/>
<path d="M31.8516 17.8618L32.1365 16.224C32.1365 16.224 31.4244 16.58 30.8547 16.58C29.8578 16.58 29.3593 15.7967 29.3593 14.871C29.3593 13.0908 30.2138 12.1651 31.282 12.1651C31.9941 12.1651 32.635 12.5923 32.635 12.5923L32.8486 11.0257C32.8486 11.0257 31.9941 10.6697 31.1396 10.6697C29.4305 10.6697 27.7927 12.1651 27.7927 14.9422C27.7927 16.7937 28.6472 18.0042 30.4275 18.0042C31.0683 18.0754 31.8516 17.8618 31.8516 17.8618Z" fill="white"/>
<path d="M11.4146 12.0225C10.4177 12.0225 9.63438 12.3073 9.63438 12.3073L9.42075 13.5891C9.42075 13.5891 10.0616 13.3042 11.0586 13.3042C11.557 13.3042 11.9843 13.3754 11.9843 13.8027C11.9843 14.0875 11.9131 14.1587 11.9131 14.1587H11.2722C9.99043 14.1587 8.63745 14.6572 8.63745 16.3662C8.63745 17.7192 9.49196 18.004 10.0616 18.004C11.0586 18.004 11.557 17.3631 11.6282 17.3631L11.557 17.9328H12.7676L13.3373 13.8739C13.3373 12.0937 11.9131 12.0225 11.4146 12.0225ZM11.6994 15.2981C11.6994 15.5117 11.557 16.7223 10.7025 16.7223C10.2753 16.7223 10.1328 16.3662 10.1328 16.1526C10.1328 15.7965 10.3465 15.2981 11.4858 15.2981C11.6282 15.2981 11.6994 15.2981 11.6994 15.2981Z" fill="white"/>
<path d="M14.7617 18.0042C15.1177 18.0042 16.9692 18.0754 16.9692 16.0815C16.9692 14.2301 15.1889 14.5862 15.1889 13.8741C15.1889 13.518 15.4738 13.3756 15.9722 13.3756C16.1859 13.3756 16.9692 13.4468 16.9692 13.4468L17.1828 12.0938C17.1828 12.0938 16.6843 11.9514 15.7586 11.9514C14.6905 11.9514 13.5511 12.3787 13.5511 13.8741C13.5511 15.5831 15.4026 15.4407 15.4026 16.0815C15.4026 16.5088 14.9041 16.58 14.548 16.58C13.9072 16.58 13.1951 16.3664 13.1951 16.3664L12.9814 17.7194C13.1239 17.8618 13.5511 18.0042 14.7617 18.0042Z" fill="white"/>
<path d="M44.0998 10.8831L43.8149 12.8769C43.8149 12.8769 43.2453 12.1648 42.3908 12.1648C41.0378 12.1648 39.8984 13.8026 39.8984 15.7253C39.8984 16.9358 40.4681 18.1464 41.7499 18.1464C42.6044 18.1464 43.1741 17.5767 43.1741 17.5767L43.1028 18.0752H44.5982L45.6664 11.0255L44.0998 10.8831ZM43.3877 14.7284C43.3877 15.5117 43.0316 16.5798 42.1771 16.5798C41.6787 16.5798 41.3938 16.1525 41.3938 15.3692C41.3938 14.1587 41.8923 13.4466 42.6044 13.4466C43.1029 13.5178 43.3877 13.8738 43.3877 14.7284Z" fill="white"/>
<path d="M3.36803 17.9328L4.22254 12.6633L4.36496 17.9328H5.36189L7.28454 12.6633L6.50123 17.9328H8.06784L9.27839 10.8831H6.85728L5.36189 15.2268L5.29068 10.8831H3.1544L1.94385 17.9328H3.36803Z" fill="white"/>
<path d="M26.1549 17.933C26.5822 15.5119 26.6534 13.518 27.7215 13.8741C27.8639 12.9483 28.0775 12.5211 28.22 12.165H27.9351C27.2942 12.165 26.7246 13.0195 26.7246 13.0195L26.867 12.2362H25.4428L24.5171 17.933H26.1549Z" fill="white"/>
<path d="M35.2698 12.0225C34.2729 12.0225 33.4896 12.3073 33.4896 12.3073L33.276 13.5891C33.276 13.5891 33.9169 13.3042 34.9138 13.3042C35.4122 13.3042 35.8395 13.3754 35.8395 13.8027C35.8395 14.0875 35.7683 14.1587 35.7683 14.1587H35.1274C33.8457 14.1587 32.4927 14.6572 32.4927 16.3662C32.4927 17.7192 33.3472 18.004 33.9169 18.004C34.9138 18.004 35.4123 17.3631 35.4835 17.3631L35.4123 17.9328H36.7652L37.3349 13.8739C37.3349 12.0937 35.7683 12.0225 35.2698 12.0225ZM35.6259 15.2981C35.6259 15.5117 35.4835 16.7223 34.629 16.7223C34.2017 16.7223 34.0593 16.3662 34.0593 16.1526C34.0593 15.7965 34.2729 15.2981 35.4123 15.2981C35.5547 15.2981 35.5547 15.2981 35.6259 15.2981Z" fill="white"/>
<path d="M38.4742 17.933C38.9015 15.5119 38.9727 13.518 40.0408 13.8741C40.1833 12.9483 40.3969 12.5211 40.5393 12.165H40.2545C39.6136 12.165 39.0439 13.0195 39.0439 13.0195L39.1863 12.2362H37.7621L36.8364 17.933H38.4742Z" fill="white"/>
</svg>
