<svg width="60" height="19" viewBox="0 0 60 19" fill="none" xmlns="http://www.w3.org/2000/svg">
<path d="M5.68574 12.7907C5.4009 12.5771 5.04486 12.4347 4.68881 12.3635C4.33276 12.2211 3.97672 12.2211 3.62067 12.2211C3.40704 12.2211 3.19342 12.2211 2.97979 12.2923C2.76616 12.3635 2.62374 12.4347 2.48133 12.5059C2.33891 12.5771 2.19649 12.7195 2.12528 12.8619C2.05407 13.0044 1.98286 13.1468 1.98286 13.2892C1.98286 13.4316 1.98286 13.574 2.05407 13.6452C2.12528 13.7164 2.19649 13.8589 2.33891 13.9301C2.48133 14.0013 2.62374 14.0725 2.83737 14.1437C3.051 14.2149 3.26463 14.2149 3.47825 14.2861L3.97672 14.3573C4.26155 14.4285 4.54639 14.4285 4.83123 14.571C5.11607 14.6422 5.32969 14.7846 5.54332 14.927C5.75695 15.0694 5.97057 15.283 6.04178 15.4967C6.1842 15.7103 6.25541 15.9951 6.25541 16.3512C6.25541 16.7072 6.1842 17.0633 6.04178 17.3481C5.89937 17.6329 5.68574 17.8466 5.4009 18.0602C5.11606 18.2738 4.83123 18.4163 4.47518 18.4875C4.11914 18.5587 3.76309 18.6299 3.33584 18.6299C3.12221 18.6299 2.83737 18.6299 2.55253 18.5587C2.2677 18.4875 2.05407 18.4875 1.76923 18.345C1.4844 18.2738 1.27077 18.1314 1.05714 18.0602C0.843514 17.9178 0.629887 17.7754 0.41626 17.633L1.05714 16.7072C1.19956 16.8497 1.34198 16.9209 1.4844 16.9921C1.62682 17.0633 1.84044 17.2057 2.05407 17.2769C2.2677 17.3481 2.48133 17.4193 2.69495 17.4193C2.90858 17.4905 3.12221 17.4905 3.33584 17.4905C3.54946 17.4905 3.76309 17.4905 3.97672 17.4193C4.19035 17.3481 4.33276 17.2769 4.47518 17.2057C4.6176 17.1345 4.76002 16.9921 4.83123 16.8496C4.90244 16.7072 4.97365 16.5648 4.97365 16.4224C4.97365 16.1376 4.83123 15.9239 4.54639 15.7815C4.26155 15.6391 3.8343 15.4967 3.33584 15.4255L2.97979 15.3543C2.69495 15.283 2.48133 15.283 2.19649 15.1406C1.91165 15.0694 1.69802 14.927 1.4844 14.7846C1.27077 14.6422 1.12835 14.4285 0.985933 14.2149C0.843515 14.0013 0.772306 13.7164 0.772306 13.3604C0.772306 13.0044 0.843515 12.6483 0.985933 12.4347C1.12835 12.1498 1.34198 11.9362 1.62682 11.7226C1.91165 11.509 2.19649 11.3665 2.55253 11.2953C2.90858 11.2241 3.26463 11.1529 3.62067 11.1529C4.11914 11.1529 4.6176 11.2241 5.04486 11.3665C5.47211 11.509 5.82816 11.7226 6.25541 11.9362L5.68574 12.7907ZM9.67345 13.3604C10.0295 13.3604 10.3143 13.4316 10.5992 13.574C10.884 13.7164 11.0976 13.8589 11.3113 14.0725C11.5249 14.2861 11.6673 14.571 11.8097 14.8558C11.9521 15.1406 11.9521 15.4967 11.9521 15.9239C11.9521 15.9951 11.9521 16.0663 11.9521 16.1376C11.9521 16.2088 11.9521 16.28 11.9521 16.3512H8.32048C8.32048 16.5648 8.39169 16.7784 8.5341 16.9209C8.60531 17.0633 8.74773 17.2057 8.89015 17.2769C9.03257 17.3481 9.17499 17.4193 9.31741 17.4905C9.45982 17.5617 9.67345 17.5617 9.81587 17.5617C10.0295 17.5617 10.3143 17.4905 10.528 17.4193C10.7416 17.3481 11.0264 17.2057 11.2401 17.0633L11.8097 17.8466C11.5249 18.1314 11.1688 18.2738 10.884 18.4163C10.528 18.4875 10.1719 18.5587 9.81587 18.5587C9.45982 18.5587 9.10378 18.4875 8.81894 18.345C8.5341 18.2026 8.24927 18.0602 8.03564 17.8466C7.82201 17.633 7.60839 17.3481 7.53718 17.0633C7.39476 16.7784 7.32355 16.4224 7.32355 15.9951C7.32355 15.6391 7.39476 15.283 7.53718 14.927C7.67959 14.6422 7.82201 14.3573 8.03564 14.0725C8.24927 13.8589 8.5341 13.6452 8.81894 13.574C8.96136 13.4316 9.2462 13.3604 9.67345 13.3604ZM9.60224 14.3573C9.38861 14.3573 9.2462 14.3573 9.10378 14.4285C8.96136 14.4997 8.81894 14.571 8.74773 14.7134C8.60531 14.8558 8.5341 14.927 8.46289 15.0694C8.39169 15.2118 8.32048 15.3543 8.32048 15.5679H10.884C10.8128 15.2118 10.6704 14.8558 10.4568 14.6422C10.2431 14.4285 9.95829 14.3573 9.60224 14.3573ZM15.299 13.3604C15.655 13.3604 16.0111 13.4316 16.2959 13.574C16.5807 13.7164 16.8656 13.9301 17.0792 14.1437L16.3671 14.8558C16.2247 14.7134 16.0111 14.571 15.7974 14.4997C15.5838 14.4285 15.3702 14.3573 15.1566 14.3573C14.9429 14.3573 14.7293 14.4285 14.5869 14.4997C14.3733 14.571 14.2308 14.7134 14.1596 14.8558C14.0172 14.9982 13.946 15.1406 13.8748 15.3543C13.8036 15.5679 13.7324 15.7815 13.7324 15.9951C13.7324 16.2088 13.8036 16.4224 13.8748 16.636C13.946 16.8496 14.0172 16.9921 14.1596 17.1345C14.302 17.2769 14.4445 17.3481 14.5869 17.4905C14.7293 17.5617 14.9429 17.633 15.1566 17.633C15.3702 17.633 15.5838 17.5617 15.7974 17.4905C16.0111 17.4193 16.1535 17.2769 16.3671 17.1345L17.008 17.8466C16.7944 18.1314 16.5095 18.2738 16.2247 18.4163C15.9399 18.5587 15.5838 18.6299 15.2278 18.6299C14.8717 18.6299 14.5157 18.5587 14.1596 18.4163C13.8748 18.2738 13.59 18.1314 13.3763 17.8466C13.1627 17.633 12.9491 17.3481 12.8779 16.9921C12.7354 16.7072 12.6642 16.3512 12.6642 15.9951C12.6642 15.6391 12.7354 15.283 12.8779 14.9982C13.0203 14.7134 13.1627 14.4285 13.3763 14.1437C13.59 13.9301 13.8748 13.7164 14.1596 13.574C14.5869 13.4316 14.9429 13.3604 15.299 13.3604ZM22.7047 16.3512C22.7047 16.7072 22.6335 17.0633 22.4911 17.3481C22.3487 17.6329 22.2063 17.8466 21.9926 18.0602C21.779 18.2738 21.5654 18.345 21.2805 18.4875C20.9957 18.5587 20.7109 18.6299 20.426 18.6299C20.1412 18.6299 19.8564 18.5587 19.5715 18.4875C19.2867 18.4163 19.0731 18.2738 18.8594 18.0602C18.6458 17.9178 18.5034 17.6329 18.361 17.3481C18.2186 17.0633 18.1473 16.7072 18.1473 16.3512V13.5028H19.2155V16.2088C19.2155 16.4224 19.2155 16.636 19.2867 16.7784C19.3579 16.9209 19.4291 17.0633 19.5715 17.2057C19.7139 17.2769 19.7852 17.3481 19.9276 17.4193C20.07 17.4905 20.2124 17.4905 20.426 17.4905C20.5685 17.4905 20.7821 17.4905 20.9245 17.4193C21.0669 17.3481 21.2093 17.2769 21.2805 17.2057C21.423 17.1345 21.4942 16.9921 21.5654 16.7784C21.6366 16.636 21.6366 16.4224 21.6366 16.2088V13.5028H22.7047V16.3512ZM26.6212 13.3604C26.7636 13.3604 26.9061 13.3604 27.0485 13.3604C27.1909 13.3604 27.3333 13.4316 27.4045 13.4316L27.1197 14.4997C26.9773 14.4285 26.9061 14.4285 26.6924 14.3573C26.55 14.3573 26.4076 14.2861 26.2652 14.2861C26.1228 14.2861 25.9091 14.2861 25.7667 14.3573C25.6243 14.4285 25.4819 14.4997 25.4107 14.6422C25.3395 14.7846 25.197 14.927 25.197 15.0694C25.1258 15.2118 25.1258 15.4255 25.1258 15.6391V18.345H24.0577V13.4316H25.1258V14.0013C25.2683 13.7877 25.4819 13.574 25.7667 13.5028C25.9803 13.4316 26.2652 13.3604 26.6212 13.3604ZM30.1817 13.3604C30.5377 13.3604 30.8226 13.4316 31.1074 13.574C31.3922 13.7164 31.6059 13.8589 31.8195 14.0725C32.0331 14.2861 32.1755 14.571 32.318 14.8558C32.4604 15.1406 32.4604 15.4967 32.4604 15.9239C32.4604 15.9951 32.4604 16.0663 32.4604 16.1376C32.4604 16.2088 32.4604 16.28 32.4604 16.3512H28.8999C28.8999 16.5648 28.9711 16.7784 29.1136 16.9209C29.1848 17.0633 29.3272 17.2057 29.4696 17.2769C29.612 17.3481 29.7544 17.4193 29.8969 17.4905C30.0393 17.5617 30.2529 17.5617 30.3953 17.5617C30.6089 17.5617 30.8938 17.4905 31.1074 17.4193C31.321 17.3481 31.6059 17.2057 31.8195 17.0633L32.318 17.8466C32.0331 18.1314 31.6771 18.2738 31.3922 18.4163C31.0362 18.4875 30.6802 18.5587 30.3241 18.5587C29.9681 18.5587 29.612 18.4875 29.3272 18.345C29.0423 18.2026 28.7575 18.0602 28.5439 17.8466C28.3303 17.633 28.1166 17.3481 28.0454 17.0633C27.903 16.7784 27.8318 16.4224 27.8318 15.9951C27.8318 15.6391 27.903 15.283 28.0454 14.927C28.1878 14.6422 28.3303 14.3573 28.5439 14.0725C28.7575 13.8589 29.0423 13.6452 29.3272 13.574C29.4696 13.4316 29.8256 13.3604 30.1817 13.3604ZM30.1817 14.3573C29.9681 14.3573 29.8256 14.3573 29.6832 14.4285C29.5408 14.4997 29.3984 14.571 29.3272 14.7134C29.1848 14.8558 29.1136 14.927 29.0423 15.0694C28.9711 15.2118 28.8999 15.3543 28.8999 15.5679H31.4635C31.3922 15.2118 31.2498 14.8558 31.0362 14.6422C30.8226 14.4285 30.5377 14.3573 30.1817 14.3573ZM37.1602 11.0817C37.445 11.0817 37.8011 11.0817 38.0859 11.1529C38.3707 11.2241 38.6556 11.2953 38.9404 11.4378C39.2253 11.5802 39.4389 11.7226 39.6525 11.9362C39.8661 12.1498 40.0086 12.3635 40.151 12.5771L39.154 13.218C38.9404 12.8619 38.6556 12.6483 38.2995 12.4347C37.9435 12.2211 37.5874 12.1498 37.1602 12.1498C36.8041 12.1498 36.4481 12.2211 36.1633 12.3635C35.8784 12.5059 35.5936 12.6483 35.38 12.9331C35.1663 13.1468 34.9527 13.4316 34.8815 13.7877C34.7391 14.1437 34.6679 14.4285 34.6679 14.8558C34.6679 15.2118 34.7391 15.5679 34.8815 15.9239C35.0239 16.28 35.1663 16.4936 35.38 16.7784C35.5936 16.9921 35.8784 17.2057 36.1633 17.2769C36.4481 17.4193 36.8041 17.4905 37.1602 17.4905C37.5874 17.4905 37.9435 17.4193 38.2995 17.2057C38.6556 16.9921 38.9404 16.7784 39.154 16.4224L40.0798 17.1345C39.9373 17.3481 39.7237 17.5617 39.5101 17.7754C39.2965 17.989 39.0828 18.1314 38.798 18.2026C38.5132 18.345 38.2995 18.4163 38.0147 18.4875C37.7299 18.5587 37.445 18.5587 37.089 18.5587C36.5193 18.5587 36.0208 18.4875 35.5936 18.2738C35.1663 18.0602 34.7391 17.8466 34.383 17.4905C34.027 17.1345 33.8134 16.7784 33.5997 16.28C33.3861 15.8527 33.3149 15.3543 33.3149 14.7846C33.3149 14.2149 33.3861 13.7164 33.5997 13.2892C33.8134 12.8619 34.027 12.4347 34.383 12.0786C34.7391 11.7226 35.0951 11.509 35.5936 11.2953C36.0921 11.2241 36.5905 11.0817 37.1602 11.0817ZM43.4978 13.3604C43.8538 13.3604 44.2099 13.4316 44.5659 13.574C44.922 13.7164 45.1356 13.8589 45.4204 14.1437C45.6341 14.3573 45.8477 14.6422 45.9901 14.9982C46.1325 15.283 46.2038 15.6391 46.2038 15.9951C46.2038 16.3512 46.1325 16.7072 45.9901 16.9921C45.8477 17.2769 45.7053 17.5617 45.4204 17.8466C45.2068 18.0602 44.922 18.2738 44.5659 18.4163C44.2099 18.5587 43.9251 18.6299 43.4978 18.6299C43.1418 18.6299 42.7857 18.5587 42.4297 18.4163C42.0736 18.2738 41.86 18.1314 41.5752 17.8466C41.3615 17.633 41.1479 17.3481 41.0055 16.9921C40.8631 16.7072 40.7919 16.3512 40.7919 15.9951C40.7919 15.6391 40.8631 15.283 41.0055 14.9982C41.1479 14.7134 41.2903 14.4285 41.5752 14.1437C41.7888 13.9301 42.0736 13.7164 42.4297 13.574C42.7857 13.4316 43.1418 13.3604 43.4978 13.3604ZM43.4978 14.3573C43.2842 14.3573 43.0705 14.4285 42.8569 14.4997C42.6433 14.571 42.5009 14.7134 42.3585 14.8558C42.216 14.9982 42.1448 15.1406 42.0024 15.3543C41.9312 15.5679 41.86 15.7815 41.86 15.9951C41.86 16.2088 41.9312 16.4224 42.0024 16.636C42.0736 16.8496 42.216 16.9921 42.3585 17.1345C42.5009 17.2769 42.6433 17.3481 42.8569 17.4905C43.0705 17.5617 43.2842 17.633 43.4978 17.633C43.7114 17.633 43.9251 17.5617 44.1387 17.4905C44.3523 17.4193 44.4947 17.2769 44.6371 17.1345C44.7796 16.9921 44.8508 16.8496 44.9932 16.636C45.0644 16.4224 45.1356 16.2088 45.1356 15.9951C45.1356 15.7815 45.0644 15.5679 44.9932 15.3543C44.922 15.1406 44.7796 14.9982 44.6371 14.8558C44.4947 14.7134 44.3523 14.6422 44.1387 14.4997C43.9251 14.4285 43.7114 14.3573 43.4978 14.3573ZM49.4082 13.3604C49.7642 13.3604 50.049 13.4316 50.3339 13.574C50.6187 13.7164 50.8323 13.8589 50.9748 14.0725V11.0105H52.0429V18.4163H50.9748V17.8466C50.8323 18.0602 50.6187 18.2738 50.3339 18.345C50.049 18.4875 49.7642 18.5587 49.4082 18.5587C49.0521 18.5587 48.7673 18.4875 48.4112 18.345C48.1264 18.2026 47.8416 18.0602 47.6279 17.7754C47.4143 17.5617 47.2007 17.2769 47.1295 16.9209C46.9871 16.636 46.9158 16.28 46.9158 15.8527C46.9158 15.4967 46.9871 15.1406 47.1295 14.7846C47.2719 14.4997 47.4143 14.2149 47.6279 13.9301C47.8416 13.7164 48.1264 13.5028 48.4112 13.3604C48.6961 13.4316 49.0521 13.3604 49.4082 13.3604ZM49.4794 14.3573C49.2657 14.3573 49.0521 14.4285 48.8385 14.4997C48.6249 14.571 48.4824 14.7134 48.34 14.8558C48.1976 14.9982 48.1264 15.1406 48.0552 15.3543C47.984 15.5679 47.984 15.7815 47.984 15.9951C47.984 16.2088 47.984 16.4224 48.0552 16.636C48.1264 16.8496 48.1976 16.9921 48.34 17.1345C48.4824 17.2769 48.6249 17.4193 48.8385 17.4905C49.0521 17.5617 49.1945 17.633 49.4794 17.633C49.693 17.633 49.9066 17.5617 50.1203 17.4905C50.3339 17.4193 50.4763 17.2769 50.6187 17.1345C50.7611 16.9921 50.8323 16.8496 50.9036 16.636C50.9748 16.4224 51.046 16.2088 51.046 15.9951C51.046 15.7815 50.9748 15.5679 50.9036 15.3543C50.8323 15.1406 50.7611 14.9982 50.6187 14.8558C50.4763 14.7134 50.3339 14.571 50.1203 14.4997C49.9066 14.4285 49.7642 14.3573 49.4794 14.3573ZM55.6034 13.3604C55.9594 13.3604 56.2442 13.4316 56.5291 13.574C56.8139 13.7164 57.0275 13.8589 57.2412 14.0725C57.4548 14.2861 57.5972 14.571 57.7396 14.8558C57.8821 15.1406 57.8821 15.4967 57.8821 15.9239C57.8821 15.9951 57.8821 16.0663 57.8821 16.1376C57.8821 16.2088 57.8821 16.28 57.8821 16.3512H54.2504C54.2504 16.5648 54.3216 16.7784 54.464 16.9209C54.5352 17.0633 54.6776 17.2057 54.8201 17.2769C54.9625 17.3481 55.1049 17.4193 55.2473 17.4905C55.3897 17.5617 55.6034 17.5617 55.7458 17.5617C55.9594 17.5617 56.2442 17.4905 56.4579 17.4193C56.6715 17.3481 56.9563 17.2057 57.17 17.0633L57.6684 17.8466C57.3836 18.1314 57.0275 18.2738 56.7427 18.4163C56.3867 18.4875 56.0306 18.5587 55.6746 18.5587C55.3185 18.5587 54.9625 18.4875 54.6776 18.345C54.3928 18.2026 54.108 18.0602 53.8943 17.8466C53.6807 17.633 53.4671 17.3481 53.3959 17.0633C53.2535 16.7784 53.1822 16.4224 53.1822 15.9951C53.1822 15.6391 53.2535 15.283 53.3959 14.927C53.5383 14.6422 53.6807 14.3573 53.8943 14.0725C54.108 13.8589 54.3928 13.6452 54.6776 13.574C54.8913 13.4316 55.2473 13.3604 55.6034 13.3604ZM58.3805 18.4163V18.2026H58.4517V18.1314H58.1669V18.2026H58.2381L58.3805 18.4163ZM58.879 18.4163V18.1314H58.8078L58.7366 18.345L58.6654 18.1314H58.5941V18.4163H58.6654V18.2026L58.7366 18.4163H58.8078L58.879 18.2026V18.4163ZM55.5322 14.3573C55.3185 14.3573 55.1761 14.3573 55.0337 14.4285C54.8913 14.4997 54.7488 14.571 54.6776 14.7134C54.5352 14.8558 54.464 14.927 54.3928 15.0694C54.3216 15.2118 54.2504 15.3543 54.2504 15.5679H56.8139C56.7427 15.2118 56.6003 14.8558 56.3867 14.6422C56.173 14.4285 55.8882 14.3573 55.5322 14.3573Z" fill="#F59E1F"/>
<path d="M9.2461 8.3046H8.03554V2.18062L5.89927 7.5213H4.6175L2.41002 2.18062V8.23339H1.19946V0.827641H3.0509L5.18718 6.16833L7.32345 0.827641H9.17489V8.3046H9.2461ZM15.5837 8.3046H14.4444V7.66372C14.302 7.87735 14.0171 8.09098 13.8035 8.23339C13.5186 8.37581 13.2338 8.44702 12.8778 8.44702C12.5217 8.44702 12.1657 8.37581 11.8808 8.23339C11.596 8.09098 11.3112 7.94856 11.0975 7.66372C10.8839 7.45009 10.6703 7.16526 10.5279 6.80921C10.3854 6.45316 10.3142 6.09712 10.3142 5.74107C10.3142 5.38503 10.3854 4.95777 10.5279 4.67294C10.6703 4.31689 10.8127 4.03205 11.0975 3.81843C11.3112 3.6048 11.596 3.39117 11.8808 3.24875C12.1657 3.10633 12.5217 3.03512 12.8778 3.03512C13.2338 3.03512 13.5899 3.10633 13.8035 3.24875C14.0883 3.39117 14.302 3.53359 14.4444 3.81843V3.17754H15.5837V8.3046ZM13.0202 4.10326C12.8066 4.10326 12.5929 4.17447 12.3793 4.24568C12.1657 4.31689 12.0233 4.45931 11.8808 4.60173C11.7384 4.74414 11.6672 4.88656 11.596 5.10019C11.5248 5.31382 11.5248 5.52745 11.5248 5.74107C11.5248 5.9547 11.5248 6.16833 11.596 6.38196C11.6672 6.59558 11.7384 6.738 11.8808 6.88042C12.0233 7.02284 12.1657 7.16526 12.3793 7.23647C12.5929 7.30768 12.8066 7.37888 13.0202 7.37888C13.2338 7.37888 13.4474 7.30768 13.6611 7.23647C13.8747 7.16526 14.0171 7.02284 14.1595 6.88042C14.3019 6.738 14.3732 6.59558 14.4444 6.38196C14.5156 6.16833 14.5868 5.9547 14.5868 5.74107C14.5868 5.52745 14.5156 5.31382 14.4444 5.10019C14.3732 4.88656 14.2307 4.74414 14.1595 4.60173C14.0171 4.45931 13.8747 4.31689 13.6611 4.24568C13.4474 4.10326 13.2338 4.10326 13.0202 4.10326ZM20.7108 4.45931C20.6396 4.3881 20.5684 4.3881 20.4259 4.31689C20.2835 4.24568 20.2123 4.24568 20.0699 4.17447C19.9275 4.10326 19.7851 4.10326 19.6426 4.10326C19.5002 4.10326 19.3578 4.03205 19.1442 4.03205C18.8593 4.03205 18.5745 4.10326 18.4321 4.17447C18.2897 4.31689 18.1472 4.45931 18.1472 4.60173C18.1472 4.67294 18.1472 4.74415 18.2185 4.81535C18.2897 4.88656 18.2897 4.95777 18.4321 4.95777C18.5033 5.02898 18.5745 5.02898 18.7169 5.02898C18.7881 5.02898 18.9305 5.10019 19.073 5.10019L19.5714 5.1714C20.1411 5.24261 20.5684 5.38503 20.8532 5.66986C21.138 5.88349 21.3517 6.23954 21.3517 6.66679C21.3517 6.88042 21.2804 7.16526 21.2092 7.30768C21.138 7.5213 20.9244 7.66372 20.782 7.80614C20.5684 7.94856 20.3547 8.09098 20.0699 8.16218C19.7851 8.23339 19.429 8.3046 19.073 8.3046C18.9305 8.3046 18.7881 8.3046 18.6457 8.3046C18.5033 8.3046 18.2897 8.23339 18.076 8.23339C17.8624 8.16218 17.6488 8.09098 17.5064 8.01977C17.2927 7.94856 17.0791 7.80614 16.9367 7.66372L17.4352 6.80921C17.5064 6.88042 17.6488 6.95163 17.72 7.02284C17.8624 7.09405 17.9336 7.16526 18.076 7.16526C18.2185 7.23647 18.3609 7.23647 18.5033 7.30768C18.6457 7.30768 18.8593 7.37888 19.073 7.37888C19.429 7.37888 19.7138 7.30768 19.9275 7.23647C20.1411 7.09405 20.2123 6.95163 20.2123 6.80921C20.2123 6.66679 20.1411 6.52437 19.9987 6.45316C19.8563 6.38196 19.6426 6.31075 19.3578 6.23954L18.8593 6.16833C18.2897 6.09712 17.8624 5.9547 17.5776 5.66986C17.2927 5.38503 17.1503 5.10019 17.1503 4.67294C17.1503 4.3881 17.2215 4.17447 17.2927 3.96084C17.3639 3.74722 17.5064 3.6048 17.72 3.46238C17.9336 3.31996 18.1472 3.24875 18.3609 3.10633C18.6457 3.03513 18.9305 2.96392 19.2154 2.96392C19.6426 2.96392 19.9987 3.03513 20.3547 3.10633C20.7108 3.17754 20.9956 3.31996 21.2804 3.53359L20.7108 4.45931ZM25.9803 4.17447H24.0576V6.38196C24.0576 6.52437 24.0576 6.66679 24.1288 6.80921C24.2 6.95163 24.2 7.02284 24.2712 7.09405C24.3424 7.16526 24.4137 7.23647 24.5561 7.23647C24.6273 7.23647 24.7697 7.30768 24.8409 7.30768C24.9833 7.30768 25.197 7.30768 25.3394 7.23647C25.553 7.16526 25.6954 7.09405 25.8378 7.02284L26.2651 7.87735C26.0515 8.01977 25.8378 8.16218 25.553 8.23339C25.2682 8.3046 24.9833 8.37581 24.6985 8.37581C24.1288 8.37581 23.7016 8.23339 23.3455 7.87735C22.9895 7.5213 22.847 7.02284 22.847 6.38196V4.10326H21.8501V3.10633H22.847V1.53973H23.9864V3.10633H25.909V4.17447H25.9803ZM29.3983 3.03512C29.7543 3.03512 30.1104 3.10633 30.3952 3.24875C30.6801 3.39117 30.9649 3.53359 31.1785 3.81843C31.3921 4.03205 31.5346 4.31689 31.677 4.67294C31.8194 5.02898 31.8906 5.38503 31.8906 5.74107C31.8906 5.81228 31.8906 5.88349 31.8906 5.9547C31.8906 6.02591 31.8906 6.09712 31.8906 6.16833H28.1165C28.1165 6.38196 28.1877 6.59558 28.3302 6.738C28.4014 6.88042 28.5438 7.02284 28.6862 7.16526C28.8286 7.23647 28.971 7.37888 29.1135 7.37888C29.2559 7.45009 29.4695 7.45009 29.6119 7.45009C29.8968 7.45009 30.1104 7.37888 30.3952 7.30768C30.6801 7.23647 30.8937 7.09405 31.1073 6.88042L31.677 7.66372C31.3922 7.94856 31.0361 8.09098 30.6801 8.23339C30.324 8.3046 29.968 8.37581 29.5407 8.37581C29.1847 8.37581 28.8286 8.3046 28.4726 8.16218C28.1877 8.01977 27.9029 7.87735 27.6181 7.59251C27.4044 7.37888 27.1908 7.09405 27.0484 6.738C26.906 6.38196 26.8348 6.02591 26.8348 5.66986C26.8348 5.24261 26.906 4.88656 27.0484 4.60173C27.1908 4.24568 27.3332 3.96084 27.5469 3.74722C27.7605 3.53359 28.0453 3.31996 28.3302 3.17754C28.6862 3.10633 29.0422 3.03512 29.3983 3.03512ZM29.3983 4.03205C29.1847 4.03205 29.0422 4.03205 28.8998 4.10326C28.7574 4.17447 28.615 4.24568 28.4726 4.3881C28.3302 4.53052 28.2589 4.60173 28.1877 4.81535C28.1165 4.95777 28.0453 5.1714 28.0453 5.31382H30.6801C30.6089 4.88656 30.4664 4.60173 30.2528 4.3881C30.0392 4.10326 29.7543 4.03205 29.3983 4.03205ZM35.6647 3.03512C35.8071 3.03512 36.0207 3.03512 36.092 3.03512C36.2344 3.03512 36.3768 3.10633 36.5192 3.17754L36.2344 4.24568C36.092 4.17447 35.9495 4.17447 35.8071 4.10326C35.6647 4.10326 35.5223 4.03205 35.3799 4.03205C35.2374 4.03205 35.0238 4.03205 34.8814 4.10326C34.739 4.17447 34.5966 4.24568 34.5254 4.3881C34.4541 4.53052 34.3117 4.67294 34.2405 4.81535C34.1693 4.95777 34.1693 5.1714 34.1693 5.38503V8.16218H33.03V3.03512H34.0981V3.6048C34.2405 3.39117 34.4541 3.17754 34.739 3.03512C35.095 3.10633 35.3799 3.03512 35.6647 3.03512ZM39.51 3.03512C39.866 3.03512 40.2221 3.10633 40.5781 3.24875C40.9342 3.39117 41.219 3.6048 41.4326 3.88963L40.7206 4.67294C40.5069 4.53052 40.3645 4.3881 40.1509 4.24568C39.9373 4.17447 39.7236 4.10326 39.51 4.10326C39.2964 4.10326 39.0827 4.17447 38.9403 4.24568C38.7267 4.31689 38.5843 4.45931 38.4419 4.60173C38.2994 4.74414 38.2282 4.88656 38.157 5.10019C38.0858 5.31382 38.0146 5.52745 38.0146 5.74107C38.0146 5.9547 38.0858 6.16833 38.157 6.38196C38.2282 6.59558 38.3707 6.738 38.4419 6.88042C38.5843 7.02284 38.7267 7.16526 38.9403 7.23647C39.1539 7.30768 39.2964 7.37888 39.51 7.37888C39.7236 7.37888 40.0085 7.30768 40.2221 7.23647C40.4357 7.16526 40.6493 7.02284 40.7918 6.88042L41.5039 7.66372C41.2902 7.94856 41.0054 8.16219 40.6493 8.3046C40.2933 8.44702 39.9373 8.51823 39.5812 8.51823C39.154 8.51823 38.7979 8.44702 38.5131 8.3046C38.157 8.16219 37.8722 7.94856 37.6586 7.73493C37.4449 7.5213 37.2313 7.23647 37.0889 6.88042C36.9465 6.52437 36.8753 6.16833 36.8753 5.81228C36.8753 5.45624 36.9465 5.10019 37.0889 4.74415C37.2313 4.3881 37.3737 4.10326 37.6586 3.88963C37.8722 3.67601 38.157 3.46238 38.5131 3.31996C38.7267 3.10633 39.0827 3.03512 39.51 3.03512ZM47.343 8.3046H46.2037V7.66372C46.0612 7.87735 45.7764 8.09098 45.5628 8.23339C45.2779 8.37581 44.9931 8.44702 44.6371 8.44702C44.281 8.44702 43.925 8.37581 43.6401 8.23339C43.3553 8.09098 43.0705 7.94856 42.8568 7.66372C42.6432 7.45009 42.4296 7.16526 42.2872 6.80921C42.1447 6.45316 42.0735 6.09712 42.0735 5.74107C42.0735 5.38503 42.1447 4.95777 42.2872 4.67294C42.4296 4.31689 42.572 4.03205 42.8568 3.81843C43.0705 3.6048 43.3553 3.39117 43.6401 3.24875C43.925 3.10633 44.281 3.03512 44.6371 3.03512C44.9931 3.03512 45.3491 3.10633 45.5628 3.24875C45.8476 3.39117 46.0612 3.53359 46.2037 3.81843V3.17754H47.343V8.3046ZM44.7795 4.10326C44.5658 4.10326 44.3522 4.17447 44.1386 4.24568C43.925 4.31689 43.7825 4.45931 43.6401 4.60173C43.4977 4.74414 43.4265 4.88656 43.3553 5.10019C43.2841 5.31382 43.2841 5.52745 43.2841 5.74107C43.2841 5.9547 43.3553 6.16833 43.3553 6.38196C43.4265 6.59558 43.4977 6.738 43.6401 6.88042C43.7825 7.02284 43.925 7.16526 44.1386 7.23647C44.3522 7.30768 44.5658 7.37888 44.7795 7.37888C44.9931 7.37888 45.2067 7.30768 45.4204 7.23647C45.634 7.16526 45.7764 7.02284 45.9188 6.88042C46.0612 6.738 46.1325 6.59558 46.2037 6.38196C46.2749 6.16833 46.3461 5.9547 46.3461 5.74107C46.3461 5.52745 46.2749 5.31382 46.2037 5.10019C46.1325 4.88656 45.99 4.74414 45.9188 4.60173C45.7764 4.45931 45.634 4.31689 45.4204 4.24568C45.2067 4.10326 44.9931 4.10326 44.7795 4.10326ZM51.5443 3.03512C51.6868 3.03512 51.9004 3.03512 51.9716 3.03512C52.114 3.03512 52.2564 3.10633 52.3989 3.17754L52.114 4.24568C51.9716 4.17447 51.8292 4.17447 51.6868 4.10326C51.5443 4.10326 51.4019 4.03205 51.2595 4.03205C51.1171 4.03205 50.9035 4.03205 50.761 4.10326C50.6186 4.17447 50.4762 4.24568 50.405 4.3881C50.3338 4.53052 50.1914 4.67294 50.1202 4.81535C50.049 4.95777 50.049 5.1714 50.049 5.38503V8.16218H48.9096V3.03512H49.9777V3.6048C50.1202 3.39117 50.3338 3.17754 50.6186 3.03512C50.9747 3.10633 51.2595 3.03512 51.5443 3.03512ZM55.2472 3.03512C55.6033 3.03512 55.9593 3.10633 56.1729 3.24875C56.4578 3.39117 56.6714 3.53359 56.8138 3.81843V0.614014H57.9532V8.3046H56.8138V7.66372C56.6714 7.87735 56.3866 8.09098 56.1729 8.23339C55.8881 8.37581 55.6033 8.44702 55.2472 8.44702C54.8912 8.44702 54.5351 8.37581 54.2503 8.23339C53.9655 8.09098 53.6806 7.94856 53.467 7.66372C53.2534 7.45009 53.0397 7.16526 52.8973 6.80921C52.7549 6.45316 52.6837 6.09712 52.6837 5.74107C52.6837 5.38503 52.7549 4.95777 52.8973 4.67294C53.0397 4.31689 53.1822 4.03205 53.467 3.81843C53.6806 3.6048 53.9655 3.39117 54.2503 3.24875C54.5351 3.10633 54.8912 3.03512 55.2472 3.03512ZM59.2349 7.80614C59.3061 7.80614 59.3061 7.80614 59.3774 7.80614C59.4486 7.80614 59.4486 7.87735 59.4486 7.87735L59.5198 7.94856C59.5198 8.01977 59.5198 8.01977 59.5198 8.09098C59.5198 8.16218 59.5198 8.16218 59.5198 8.23339C59.5198 8.3046 59.4486 8.3046 59.4486 8.3046L59.3774 8.37581C59.3061 8.37581 59.3061 8.37581 59.2349 8.37581C59.1637 8.37581 59.1637 8.37581 59.0925 8.37581C59.0213 8.37581 59.0213 8.3046 59.0213 8.3046L58.9501 8.23339C58.9501 8.16218 58.9501 8.16218 58.9501 8.09098C58.9501 8.01977 58.9501 8.01977 58.9501 7.94856C58.9501 7.87735 59.0213 7.87735 59.0213 7.87735L59.0925 7.80614C59.1637 7.80614 59.1637 7.80614 59.2349 7.80614ZM59.2349 8.37581H59.3061C59.3061 8.37581 59.3774 8.37581 59.3774 8.3046L59.4486 8.23339V8.16218V8.09098C59.4486 8.09098 59.4486 8.01977 59.3774 8.01977L59.3061 7.94856H59.2349H59.1637C59.1637 7.94856 59.0925 7.94856 59.0925 8.01977L59.0213 8.09098V8.16218V8.23339C59.0213 8.23339 59.0213 8.3046 59.0925 8.3046L59.1637 8.37581H59.2349ZM59.2349 7.94856C59.3061 7.94856 59.3061 7.94856 59.3061 7.94856V8.01977V8.09098H59.2349L59.3061 8.23339H59.2349L59.1637 8.09098V8.23339H59.0925V7.94856H59.2349ZM59.1637 8.01977V8.09098H59.2349C59.2349 8.09098 59.2349 8.09098 59.3061 8.09098C59.3061 8.09098 59.3061 8.09098 59.2349 8.09098H59.1637V8.01977ZM55.3896 4.10326C55.176 4.10326 54.9624 4.17447 54.7488 4.24568C54.5351 4.31689 54.3927 4.45931 54.2503 4.60173C54.1079 4.74414 54.0367 4.88656 53.9655 5.10019C53.823 5.31382 53.823 5.52745 53.823 5.74107C53.823 5.9547 53.8942 6.16833 53.8942 6.38196C53.9655 6.59558 54.0367 6.738 54.1791 6.88042C54.3215 7.02284 54.4639 7.16526 54.6775 7.23647C54.8912 7.30768 55.1048 7.37888 55.3184 7.37888C55.5321 7.37888 55.7457 7.30768 55.9593 7.23647C56.1729 7.16526 56.3154 7.02284 56.4578 6.88042C56.6002 6.738 56.6714 6.59558 56.7426 6.38196C56.8138 6.16833 56.885 5.9547 56.885 5.74107C56.885 5.52745 56.8138 5.31382 56.7426 5.10019C56.6714 4.88656 56.529 4.74414 56.4578 4.60173C56.3154 4.45931 56.1729 4.31689 55.9593 4.24568C55.8169 4.10326 55.6033 4.10326 55.3896 4.10326Z" fill="#E41522"/>
</svg>
