<svg width="53" height="31" viewBox="0 0 53 31" fill="none" xmlns="http://www.w3.org/2000/svg">
<path d="M23.4514 17.9256L24.8328 9.09375H27.0034L25.6221 17.9256H23.4514Z" fill="#074784"/>
<path d="M17.0381 9.09375H20.4915C22.6621 9.09375 23.2541 10.3985 22.9581 11.9039C22.7608 13.2086 21.8728 14.0115 20.6888 14.3126L22.8595 17.9256H19.9981L18.3208 14.4129L17.8274 17.9256H15.5581L17.0381 9.09375ZM19.0115 10.7999L18.6168 13.0079H19.3075C19.8995 13.0079 20.4915 12.5061 20.5901 11.9039C20.6888 11.3017 20.2941 10.7999 19.6035 10.7999H19.0115Z" fill="#074784"/>
<path d="M33.614 17.9256L34.9954 9.09375H37.2647L35.8834 17.9256H33.614Z" fill="#074784"/>
<path d="M40.9155 11.0006L40.6195 12.5061H43.1848L42.8888 14.4129H40.3235L40.1261 16.0187H42.7901L42.4941 17.9256H37.5608L38.9421 9.09375H43.8755L43.5795 11.0006H40.9155Z" fill="#074784"/>
<path d="M12.6967 11.0006L12.4994 12.5061H15.0647L14.7687 14.4129H12.2034L11.9074 16.0187H14.5714L14.2754 17.9256H9.34204L10.7234 9.09375H15.6567L15.3607 11.0006H12.6967Z" fill="#074784"/>
<path d="M30.6542 11.0006L30.4569 12.5061H32.9236L32.6276 14.4129H30.1609L29.5689 17.9256H27.2996L28.6809 9.09375H33.7129L33.4169 11.0006H30.6542Z" fill="#074784"/>
<path d="M48.1182 9.09375H45.1582L43.7769 17.9256H46.7369C49.4995 17.9256 51.7689 16.0187 52.1636 13.5097C52.3609 11.8035 51.5716 9.09375 48.1182 9.09375ZM49.7956 13.4093C49.4996 15.0151 48.4142 16.0187 46.9342 16.0187C46.7369 16.0187 46.5395 16.0187 46.3422 16.0187L47.1315 11.0006C47.3289 11.0006 47.4275 11.0006 47.6249 11.0006C49.3022 11.0006 49.9929 12.205 49.7956 13.4093Z" fill="#074784"/>
<path d="M0.264648 7.88947H4.40867L4.902 14.3126C7.66468 9.49526 10.4274 4.87861 13.2887 0.261963H14.6701C11.71 6.08295 8.75002 12.0043 5.88868 17.9257H2.82999L2.04066 10.8C1.84332 9.09381 1.54732 8.29092 0.264648 8.19055V7.88947Z" fill="#074784"/>
<path d="M5.88861 9.79609L9.14463 4.17582V3.9751H1.84326V4.17582L5.39528 5.78161L5.69128 9.79609H5.88861Z" fill="#F09C11"/>
<path d="M18.8142 22.8436C18.2222 22.8436 17.7289 23.1447 17.3342 23.5461L17.8276 20.0334H16.3475L15.2622 27.7613H16.7422L16.8409 27.1591C17.1369 27.5606 17.5316 27.8617 18.1236 27.8617C19.3076 27.8617 20.3929 26.7577 20.5902 25.3526C20.7876 23.9476 19.9982 22.8436 18.8142 22.8436ZM19.0116 25.3526C18.9129 25.9548 18.4196 26.4566 17.9262 26.4566C17.4329 26.4566 17.0382 25.9548 17.1369 25.3526C17.2356 24.7505 17.7289 24.2486 18.2222 24.2486C18.7156 24.2486 19.1102 24.7505 19.0116 25.3526Z" fill="#074784"/>
<path d="M24.734 22.9436H26.4113L21.9713 30.1697H20.2939L22.1686 27.1588L20.6886 22.9436H22.366L23.1553 25.4527L24.734 22.9436Z" fill="#074784"/>
<path d="M36.3767 27.7613H34.3047L36.6727 20.0334H38.7447L36.3767 27.7613Z" fill="#074784"/>
<path d="M33.4168 20.0334L30.6541 25.0515L30.4568 20.0334H26.9048V20.3345C28.0888 20.3345 28.2861 20.5353 28.4835 21.4385L29.1741 27.7613H31.3448L35.6862 20.0334H33.4168Z" fill="#074784"/>
<path d="M46.9343 26.6573L46.441 27.7613H44.1716L48.3156 20.0334H51.0783L51.769 27.7613H50.1903H49.4997L49.401 26.6573H46.9343ZM47.625 25.1519H49.401L49.2037 21.5389L47.625 25.1519Z" fill="#074784"/>
<path d="M40.9156 27.9618C39.4356 27.9618 38.449 27.46 37.7583 27.0586L38.745 25.5531C39.337 25.9546 39.8303 26.356 41.0143 26.356C41.409 26.356 41.705 26.2557 41.9023 25.9546C42.1983 25.4528 41.8037 25.1517 41.0143 24.7503L40.6196 24.3488C39.4356 23.5459 38.8436 22.743 39.4356 21.3379C39.8303 20.4347 40.7183 19.8325 42.297 19.8325C43.3823 19.8325 44.369 20.3343 44.961 20.7358L43.777 22.0405C43.185 21.5387 42.6917 21.3379 42.1983 21.3379C41.8037 21.3379 41.409 21.5387 41.3103 21.7394C41.113 22.1408 41.409 22.4419 42.001 22.8434L42.4943 23.1445C43.9743 24.0477 44.2703 25.0513 43.9743 25.9546C43.481 27.6607 42.1983 27.9618 40.9156 27.9618Z" fill="#074784"/>
</svg>
