<svg width="56" height="14" viewBox="0 0 56 14" fill="none" xmlns="http://www.w3.org/2000/svg">
<path d="M21.7761 5.99729C21.6337 7.06543 20.7791 7.06543 19.9958 7.06543H19.5686L19.9246 5.00036C19.9246 4.85794 20.067 4.78674 20.2095 4.78674H20.4231C20.9928 4.78674 21.4912 4.78674 21.7761 5.07157C21.7761 5.35641 21.7761 5.64125 21.7761 5.99729ZM21.42 3.14893H18.358C18.1444 3.14893 18.002 3.29134 17.9308 3.50497L16.7202 11.338C16.7202 11.4804 16.7914 11.6228 17.0051 11.6228H18.4292C18.6429 11.6228 18.7853 11.4804 18.8565 11.2668L19.2125 9.1305C19.2125 8.91687 19.4262 8.77445 19.6398 8.77445H20.6367C22.6306 8.77445 23.7699 7.77752 24.126 5.85487C24.2684 5.00036 24.126 4.35948 23.7699 3.86102C23.2002 3.43376 22.417 3.14893 21.42 3.14893Z" fill="#263577"/>
<path d="M28.4698 8.84552C28.3273 9.70003 27.6865 10.2697 26.832 10.2697C26.4047 10.2697 26.0487 10.1273 25.835 9.84245C25.6214 9.55761 25.5502 9.20157 25.6214 8.84552C25.7638 7.99101 26.4047 7.42134 27.2592 7.42134C27.6865 7.42134 28.0425 7.56376 28.2561 7.84859C28.3986 8.06222 28.541 8.41827 28.4698 8.84552ZM30.4636 5.99716H29.0394C28.897 5.99716 28.8258 6.06836 28.7546 6.21078L28.6834 6.63804L28.6122 6.49562C28.3273 6.06836 27.6153 5.85474 26.9032 5.85474C25.2654 5.85474 23.9124 7.06529 23.6275 8.77431C23.4851 9.62882 23.6987 10.4121 24.1972 10.9818C24.6245 11.4803 25.2653 11.6939 26.0486 11.6939C27.3304 11.6939 28.0425 10.8394 28.0425 10.8394L27.9713 11.2666C27.9713 11.4091 28.0425 11.5515 28.2561 11.5515H29.5379C29.7515 11.5515 29.8939 11.4091 29.9652 11.1954L30.7485 6.21078C30.7485 6.13957 30.6773 5.99716 30.4636 5.99716Z" fill="#263577"/>
<path d="M38.2255 5.99731H36.7301C36.5876 5.99731 36.4452 6.06852 36.374 6.21094L34.3802 9.20173L33.5257 6.35336C33.4544 6.13973 33.312 6.06852 33.0984 6.06852H31.6742C31.5318 6.06852 31.3894 6.21094 31.4606 6.42457L33.0984 11.1244L31.603 13.2606C31.4606 13.4031 31.603 13.6879 31.8166 13.6879H33.312C33.4545 13.6879 33.5969 13.6167 33.6681 13.4743L38.5103 6.42457C38.5815 6.21094 38.4391 5.99731 38.2255 5.99731Z" fill="#263577"/>
<path d="M43.4238 5.99729C43.2814 7.06543 42.4268 7.06543 41.6435 7.06543H41.2163L41.5723 5.00036C41.5723 4.85794 41.7148 4.78674 41.8572 4.78674H42.0708C42.6405 4.78674 43.1389 4.78674 43.4238 5.07157C43.495 5.35641 43.495 5.64125 43.4238 5.99729ZM43.0677 3.14893H40.0057C39.7921 3.14893 39.6497 3.29134 39.5785 3.50497L38.3679 11.338C38.3679 11.4804 38.4391 11.6228 38.6528 11.6228H40.2194C40.3618 11.6228 40.5042 11.5516 40.5042 11.338L40.8602 9.1305C40.8602 8.91687 41.0739 8.77445 41.2875 8.77445H42.2844C44.2783 8.77445 45.4176 7.77752 45.7737 5.85487C45.9161 5.00036 45.7737 4.35948 45.4176 3.86102C44.9192 3.43376 44.1359 3.14893 43.0677 3.14893Z" fill="#2199D6"/>
<path d="M50.1888 8.84552C50.0463 9.70003 49.4055 10.2697 48.5509 10.2697C48.1237 10.2697 47.7677 10.1273 47.554 9.84245C47.3404 9.55761 47.2692 9.20157 47.3404 8.84552C47.4828 7.99101 48.1237 7.42134 48.9782 7.42134C49.4055 7.42134 49.7615 7.56376 49.9751 7.84859C50.1176 8.06222 50.26 8.41827 50.1888 8.84552ZM52.1826 5.99716H50.7584C50.616 5.99716 50.5448 6.06836 50.4736 6.21078L50.4024 6.63804L50.3312 6.49562C50.0463 6.06836 49.3343 5.85474 48.6222 5.85474C46.9844 5.85474 45.6314 7.06529 45.3465 8.77431C45.2041 9.62882 45.4177 10.4121 45.9162 10.9818C46.3435 11.4803 46.9843 11.6939 47.7676 11.6939C49.0494 11.6939 49.7615 10.8394 49.7615 10.8394L49.6903 11.2666C49.6903 11.4091 49.7615 11.5515 49.9751 11.5515H51.2569C51.4705 11.5515 51.6129 11.4091 51.6841 11.1954L52.4675 6.21078C52.4675 6.13957 52.325 5.99716 52.1826 5.99716Z" fill="#2199D6"/>
<path d="M53.8914 3.36255L52.6096 11.338C52.6096 11.4804 52.6808 11.6228 52.8945 11.6228H54.1762C54.3899 11.6228 54.5323 11.4804 54.6035 11.2668L55.814 3.43376C55.814 3.29135 55.7428 3.14893 55.5292 3.14893H54.105C54.0338 3.14893 53.9626 3.29134 53.8914 3.36255Z" fill="#2199D6"/>
<path d="M4.04499 13.1183L4.25861 11.623H3.76014H1.26782L2.97685 0.727946C2.97685 0.727946 2.97684 0.656738 3.04805 0.656738H3.11926H7.3206C8.67358 0.656738 9.6705 0.941575 10.169 1.51125C10.3826 1.79609 10.525 2.08092 10.5962 2.36576C10.6674 2.72181 10.6674 3.07785 10.5962 3.57631V3.86115L10.8099 4.00357C11.0235 4.07478 11.1659 4.2172 11.3083 4.35962C11.5219 4.57324 11.6644 4.85808 11.6644 5.21413C11.7356 5.57017 11.7356 5.99743 11.5932 6.49589C11.4507 7.06556 11.3083 7.49282 11.0947 7.92007C10.8811 8.27612 10.5962 8.56096 10.3114 8.84579C10.0265 9.05942 9.59929 9.20184 9.24325 9.34425C8.81599 9.41546 8.38874 9.48668 7.89028 9.48668H7.53423C7.3206 9.48668 7.10698 9.55788 6.89335 9.7003C6.75093 9.84272 6.60852 10.0563 6.53731 10.27V10.4124L6.11005 13.0471V13.1183V13.1896C6.11005 13.1896 6.11004 13.1896 6.03883 13.1896H4.04499V13.1183Z" fill="#263577"/>
<path d="M11.0949 3.57617C11.0949 3.64738 11.0949 3.71859 11.0237 3.7898C10.454 6.63817 8.60257 7.56388 6.18145 7.56388H4.97089C4.68605 7.56388 4.40123 7.77751 4.40123 8.06235L3.76034 12.0501L3.61792 13.1894C3.61792 13.403 3.76033 13.5455 3.90275 13.5455H6.11024C6.39508 13.5455 6.6087 13.3318 6.6087 13.1182V12.9758L7.03596 10.4123V10.2698C7.10717 9.985 7.3208 9.84258 7.53442 9.84258H7.89047C10.0267 9.84258 11.6646 8.98807 12.0918 6.49575C12.3054 5.42761 12.163 4.5731 11.6646 4.00343C11.5221 3.86101 11.3085 3.71859 11.0949 3.57617Z" fill="#2199D6"/>
<path d="M10.5251 3.36255C10.4539 3.36255 10.3827 3.29134 10.2403 3.29134C10.1691 3.29134 10.0266 3.22013 9.95543 3.22013C9.59938 3.14892 9.24334 3.14893 8.88729 3.14893H5.61168C5.54047 3.14893 5.46926 3.14892 5.39805 3.22013C5.25563 3.29134 5.11321 3.43376 5.11321 3.57618L4.40112 7.99115V8.13357C4.47233 7.84873 4.68595 7.63511 4.97079 7.63511H6.18135C8.60246 7.63511 10.4539 6.63817 11.0236 3.86102C11.0236 3.78981 11.0236 3.7186 11.0948 3.64739C10.9524 3.57618 10.8099 3.50497 10.6675 3.43376C10.5963 3.36255 10.5251 3.36255 10.5251 3.36255Z" fill="#252C5E"/>
<path d="M5.11313 3.57608C5.11313 3.43366 5.25554 3.29124 5.39796 3.22003C5.46917 3.22003 5.54038 3.14882 5.61159 3.14882H8.8872C9.24325 3.14882 9.6705 3.14882 9.95534 3.22003C10.0265 3.22003 10.169 3.22003 10.2402 3.29124C10.3114 3.29124 10.3826 3.36245 10.525 3.36245C10.5962 3.36245 10.5962 3.36245 10.6674 3.43366C10.8099 3.50487 10.9523 3.57608 11.0947 3.64729C11.2371 2.57915 11.0947 1.86706 10.525 1.22617C9.88413 0.514083 8.74479 0.229248 7.3206 0.229248H3.11927C2.83443 0.229248 2.54959 0.442873 2.54959 0.72771L0.840576 11.6939C0.840576 11.9076 0.982994 12.1212 1.19662 12.1212H3.76015L4.40103 7.99105L5.11313 3.57608Z" fill="#263577"/>
</svg>
