<svg width="50" height="16" viewBox="0 0 50 16" fill="none" xmlns="http://www.w3.org/2000/svg">
<path d="M46.3817 1.01831H43.3197C42.394 1.01831 41.6819 1.30315 41.2547 2.22887L35.4155 15.545H39.5457C39.5457 15.545 40.2578 13.7648 40.4002 13.3375C40.8274 13.3375 44.8863 13.3375 45.456 13.3375C45.5984 13.836 45.9545 15.4738 45.9545 15.4738H49.6574L46.3817 1.01831ZM41.5395 10.3467C41.8956 9.4922 43.1061 6.28779 43.1061 6.28779C43.1061 6.359 43.4622 5.43328 43.6046 4.93481L43.8894 6.21658C43.8894 6.21658 44.6727 9.70583 44.8151 10.4179H41.5395V10.3467Z" fill="#3362AB"/>
<path d="M35.7002 10.774C35.7002 13.7648 32.9942 15.7586 28.7929 15.7586C27.0127 15.7586 25.3036 15.4026 24.3779 14.9753L24.9476 11.6997L25.4461 11.9133C26.7278 12.483 27.5823 12.6966 29.1489 12.6966C30.2883 12.6966 31.4988 12.2694 31.4988 11.2724C31.4988 10.6316 31.0004 10.2043 29.4338 9.49221C27.9384 8.78011 25.9445 7.64077 25.9445 5.5757C25.9445 2.72734 28.7217 0.804688 32.6382 0.804688C34.1336 0.804688 35.4153 1.08952 36.1986 1.44557L35.629 4.57877L35.3441 4.29394C34.632 4.0091 33.7063 3.72426 32.3534 3.72426C30.858 3.79547 30.1459 4.43636 30.1459 5.00603C30.1459 5.64691 31.0004 6.14537 32.3534 6.78626C34.632 7.85439 35.7002 9.06495 35.7002 10.774Z" fill="#3362AB"/>
<path d="M0.950195 1.16081L1.0214 0.875977H7.14539C7.9999 0.875977 8.64079 1.16081 8.85441 2.08653L10.2074 8.49536C8.85441 5.07732 5.72121 2.30016 0.950195 1.16081Z" fill="#F9B50B"/>
<path d="M18.8237 1.01823L12.6285 15.4737H8.42716L4.8667 3.36813C7.43023 5.00594 9.5665 7.56947 10.3498 9.3497L10.7771 10.8451L14.6224 0.947021H18.8237V1.01823Z" fill="#3362AB"/>
<path d="M20.4616 0.947021H24.3781L21.8857 15.4737H17.9692L20.4616 0.947021Z" fill="#3362AB"/>
</svg>
