<svg width="46" height="28" viewBox="0 0 46 28" fill="none" xmlns="http://www.w3.org/2000/svg">
<path d="M23.2354 23.7454C25.9414 21.2531 27.6504 17.6927 27.6504 13.7762C27.6504 9.78845 25.9414 6.22799 23.2354 3.80688C20.8143 1.6706 17.6811 0.317627 14.1919 0.317627C6.71489 0.317627 0.662109 6.37041 0.662109 13.7762C0.662109 21.2531 6.71489 27.3059 14.1919 27.3059C17.6811 27.2347 20.8143 25.8817 23.2354 23.7454Z" fill="#3362AB"/>
<path d="M23.2354 23.7455C25.9413 21.2531 27.6503 17.6927 27.6503 13.7762C27.6503 9.78845 25.9413 6.228 23.2354 3.80688" fill="#3362AB"/>
<path d="M23.2354 23.7455C25.9413 21.2531 27.6503 17.6927 27.6503 13.7762C27.6503 9.78845 25.9413 6.228 23.2354 3.80688" stroke="#3362AB" stroke-width="0.3097"/>
<path d="M32.2791 0.246338C28.7898 0.246338 25.5854 1.59931 23.2355 3.73558C22.7371 4.16284 22.3098 4.6613 21.8825 5.15977H24.5885C24.9445 5.58702 25.3006 6.08548 25.5854 6.58395H20.8144C20.5296 7.0112 20.2447 7.50967 20.0311 8.00813H26.3687C26.5823 8.5066 26.796 8.93385 26.9384 9.43232H19.4614C19.319 9.93078 19.1766 10.358 19.0342 10.8565H27.2944C27.5081 11.7822 27.5793 12.7079 27.5793 13.7049C27.5793 15.2003 27.3657 16.6244 26.8672 17.9774H19.3902C19.5326 18.4759 19.7463 18.9743 19.9599 19.4016H26.2975C26.0839 19.9001 25.7991 20.3985 25.5142 20.8258H20.7432C21.028 21.3242 21.3841 21.8227 21.7401 22.25H24.4461C24.0188 22.7484 23.5916 23.2469 23.0931 23.6741C25.5142 25.8104 28.6474 27.1634 32.1367 27.1634C39.6136 27.1634 45.5952 21.1106 45.5952 13.6337C45.8088 6.29912 39.7561 0.246338 32.2791 0.246338Z" fill="#C9191B"/>
<path d="M12.4828 17.0516H10.7738L11.7707 11.7822L9.49203 17.0516H7.99664L7.7118 11.8534L6.71486 17.0516H5.21948L6.50124 10.2156H9.13599L9.27839 14.4881L11.1298 10.2156H13.8358L12.4828 17.0516Z" fill="white"/>
<path d="M31.282 17.0517C30.8548 17.1942 30.4275 17.2654 30.0715 17.2654C29.217 17.2654 28.7185 16.8381 28.7185 16.0548C28.7185 15.9124 28.7185 15.6988 28.7897 15.5563L28.8609 14.9867L28.9321 14.5594L29.7154 10.2869H31.3532L31.1396 11.5686H31.9941L31.7805 12.9216H30.926L30.4987 15.2715C30.4987 15.3427 30.4987 15.4851 30.4987 15.4851C30.4987 15.77 30.7124 15.9124 31.0684 15.9124C31.282 15.9124 31.4244 15.9124 31.4957 15.8412L31.282 17.0517Z" fill="white"/>
<path d="M36.1244 11.5685C35.9819 11.4973 35.9819 11.4973 35.9107 11.4973C35.8395 11.4973 35.7683 11.4973 35.7683 11.4973C35.6971 11.4973 35.6259 11.4973 35.5547 11.4973C34.985 11.4973 34.629 11.7109 34.0593 12.423L34.2017 11.5685H32.8487L31.8518 17.1228H33.5608C34.1305 13.7048 34.4153 13.1351 35.1986 13.1351C35.2698 13.1351 35.3411 13.1351 35.4123 13.1351L35.6259 13.2063L36.1244 11.5685Z" fill="white"/>
<path d="M24.5884 13.2777C24.5884 13.9898 25.0157 14.4883 25.8702 14.8443C26.5823 15.1291 26.6534 15.2004 26.6534 15.4852C26.6534 15.8412 26.3686 15.9837 25.6565 15.9837C25.1581 15.9837 24.6596 15.9125 24.1611 15.77L23.9475 17.0518H24.0187L24.3036 17.123C24.3748 17.123 24.5884 17.1942 24.7308 17.1942C25.1581 17.1942 25.4429 17.2654 25.6565 17.2654C27.4368 17.2654 28.2913 16.6958 28.2913 15.414C28.2913 14.6307 27.9352 14.2034 27.0807 13.8474C26.3686 13.5625 26.2974 13.4913 26.2974 13.2065C26.2974 12.9217 26.5822 12.7792 27.1519 12.7792C27.508 12.7792 27.9352 12.7792 28.3625 12.8505L28.5761 11.5687C28.1489 11.4975 27.508 11.4263 27.0807 11.4263C25.2293 11.4263 24.5884 12.2808 24.5884 13.2777Z" fill="white"/>
<path d="M16.7554 14.6307C16.5418 14.6307 16.4706 14.6307 16.3994 14.6307C15.4737 14.6307 14.9752 14.9155 14.9752 15.4852C14.9752 15.8412 15.1888 16.0549 15.5449 16.0549C16.1858 15.9837 16.6842 15.414 16.7554 14.6307ZM17.966 17.0518H16.5418L16.613 16.4821C16.1858 16.9094 15.6161 17.123 14.8328 17.123C13.9071 17.123 13.3374 16.4821 13.3374 15.6276C13.3374 14.2746 14.4055 13.4913 16.257 13.4913C16.4706 13.4913 16.6842 13.4913 16.9691 13.5625C17.0403 13.3489 17.0403 13.2777 17.0403 13.2065C17.0403 12.8505 16.7554 12.708 15.9721 12.708C15.4737 12.708 14.9752 12.7792 14.6192 12.8505L14.4055 12.9217L14.2631 12.9929L14.4768 11.7111C15.3313 11.4975 15.8297 11.4263 16.4706 11.4263C17.8948 11.4263 18.6781 11.9959 18.6781 13.0641C18.6781 13.3489 18.6781 13.5625 18.5357 14.1322L18.1796 16.1261L18.1084 16.4821L18.0372 16.767V16.9806L17.966 17.0518Z" fill="white"/>
<path d="M22.5945 13.6337C22.5945 13.4913 22.5945 13.42 22.5945 13.3488C22.5945 12.9216 22.3096 12.6367 21.8112 12.6367C21.2415 12.6367 20.8855 12.9928 20.743 13.6337H22.5945ZM23.449 16.9805C22.8793 17.1229 22.3096 17.1941 21.74 17.1941C19.8885 17.1941 18.8916 16.3396 18.8916 14.7018C18.8916 12.7792 20.1022 11.355 21.8112 11.355C23.1642 11.355 24.0899 12.1383 24.0899 13.3488C24.0899 13.7761 24.0187 14.1321 23.8762 14.7018H20.5294C20.5294 14.773 20.5294 14.8442 20.5294 14.8442C20.5294 15.4851 21.0279 15.8412 22.0248 15.8412C22.5945 15.8412 23.1641 15.6987 23.805 15.4851L23.449 16.9805Z" fill="white"/>
<path d="M39.6135 13.8474C39.6135 13.2777 39.3999 12.708 38.6878 12.708C37.8333 12.708 37.3348 13.705 37.3348 14.6307C37.3348 15.414 37.6909 15.9124 38.3318 15.9124C38.6878 15.9124 39.4711 15.414 39.6135 14.5595C39.6135 14.3458 39.6135 14.061 39.6135 13.8474ZM41.3938 14.5595C41.1089 16.4109 39.8271 17.2654 38.1181 17.2654C36.1955 17.2654 35.4834 16.1261 35.4834 14.7019C35.4834 12.708 36.7651 11.4263 38.759 11.4263C40.5392 11.4263 41.3938 12.4944 41.3938 13.9186C41.465 14.2034 41.465 14.2034 41.3938 14.5595Z" fill="white"/>
</svg>
