<svg width="12" height="12" viewBox="0 0 12 12" xmlns="http://www.w3.org/2000/svg">
<path d="M8 1V4H11" stroke="currentColor" stroke-linecap="round" stroke-linejoin="round" fill="none" />
<path d="M11.5 0.5L8 4" stroke="currentColor" stroke-linecap="round" stroke-linejoin="round" fill="none" />
<path d="M11 8.46005V9.96005C11.0005 10.0993 10.972 10.2371 10.9162 10.3647C10.8604 10.4923 10.7786 10.6068 10.676 10.701C10.5734 10.7951 10.4523 10.8668 10.3203 10.9114C10.1884 10.956 10.0487 10.9726 9.90997 10.96C8.37138 10.7929 6.89347 10.2671 5.59497 9.42505C4.38688 8.65738 3.36263 7.63313 2.59497 6.42505C1.74996 5.12065 1.22409 3.63555 1.05997 2.09005C1.04747 1.95178 1.0639 1.81243 1.10822 1.68086C1.15253 1.54929 1.22375 1.42839 1.31735 1.32586C1.41095 1.22332 1.52487 1.1414 1.65186 1.08531C1.77886 1.02922 1.91614 1.00018 2.05497 1.00005H3.55497C3.79762 0.99766 4.03286 1.08359 4.21685 1.24181C4.40083 1.40004 4.52101 1.61977 4.55497 1.86005C4.61828 2.34008 4.73569 2.81141 4.90497 3.26505C4.97224 3.44401 4.9868 3.63851 4.94692 3.82549C4.90704 4.01247 4.8144 4.1841 4.67997 4.32005L4.04497 4.95505C4.75674 6.20682 5.79319 7.24327 7.04497 7.95505L7.67997 7.32005C7.81591 7.18562 7.98754 7.09297 8.17453 7.05309C8.36151 7.01322 8.556 7.02778 8.73497 7.09505C9.1886 7.26432 9.65993 7.38174 10.14 7.44505C10.3828 7.47931 10.6047 7.60165 10.7632 7.7888C10.9218 7.97594 11.0061 8.21484 11 8.46005Z" stroke="currentColor" stroke-linecap="round" stroke-linejoin="round" fill="none" />
</svg>
