<svg width="224" height="52" viewBox="0 0 224 52" fill="none" xmlns="http://www.w3.org/2000/svg">
<path fill-rule="evenodd" clip-rule="evenodd" d="M54.976 22.8935V45.4132L61.8024 42.9837V16.5394C61.8024 15.6984 61.4334 14.9509 60.6954 14.3902C59.9574 13.923 59.1272 13.7361 58.3892 14.0165L44.7365 18.8755L40.4009 20.3706C38.8326 20.9312 37.9102 22.3329 37.9102 23.9214V51.3935L44.7365 48.964V26.4443" fill="#F1A800"/>
<path fill-rule="evenodd" clip-rule="evenodd" d="M34.4046 51.4868V43.9179L17.2465 37.9376V22.9868L34.4046 29.0605V21.4917L15.4015 14.8573C14.2023 14.39 13.0031 14.5769 11.8961 15.3245C10.8814 16.072 10.3279 17.1933 10.3279 18.5015V40.4605C10.3279 42.1425 11.3426 43.5441 12.9108 44.1048L17.2465 45.5999" fill="white"/>
<path fill-rule="evenodd" clip-rule="evenodd" d="M55.5296 10.6525L36.1575 3.83122L45.1978 0.654175C47.6885 -0.186808 50.0869 -0.186808 52.5776 0.654175L71.9497 7.47549L67.3373 9.06401L62.9094 10.6525C60.4187 11.4935 58.0203 11.4935 55.5296 10.6525Z" fill="white"/>
<path fill-rule="evenodd" clip-rule="evenodd" d="M16.6931 10.6525L36.1574 3.83122L27.1171 0.654175C24.6264 -0.186808 22.228 -0.186808 19.7373 0.654175L0.272949 7.47549L4.88535 9.06401L9.31326 10.6525C11.804 11.4935 14.2024 11.4935 16.6931 10.6525Z" fill="#F1A800"/>
<path fill-rule="evenodd" clip-rule="evenodd" d="M214.288 35.6951H210.967V22.7066H214.288V27.6591L218.439 22.7066H222.406L217.425 28.6869L223.329 35.6951H219.362L214.381 29.9017L214.288 35.6951ZM202.573 26.7246L201.281 30.182H203.957L202.573 26.7246ZM199.16 35.6951H195.654L201.005 22.6132H204.141L209.491 35.6951H205.986L204.879 32.9853H200.082L199.16 35.6951ZM186.429 35.6951H183.108V22.7066H194.178V35.6951H190.857V25.6033H186.337V35.6951H186.429ZM170.839 24.5754V22.7066H181.356V24.5754H177.112V35.6951H175.083V24.5754H170.839ZM161.707 24.5754V28.4066H165.028C165.766 28.4066 166.412 28.2197 166.781 27.9394C167.242 27.5656 167.426 27.0984 167.426 26.5377C167.426 25.8836 167.242 25.4164 166.781 25.1361C166.319 24.7623 165.766 24.6689 165.028 24.6689H161.707V24.5754ZM161.707 35.6951H159.677V22.7066H165.212C166.596 22.7066 167.611 23.0804 168.349 23.7345C169.087 24.3886 169.456 25.323 169.456 26.4443C169.456 27.5656 169.087 28.5 168.349 29.2476C167.611 29.9951 166.596 30.3689 165.212 30.3689H161.707V35.6951ZM151.098 25.1361L148.792 30.5558H153.497L151.098 25.1361ZM146.67 35.6951H144.549L150.176 22.6132H152.113L157.74 35.6951H155.619L154.235 32.4246H148.054L146.67 35.6951ZM133.479 33.8263H139.752V24.5754H135.232C135.232 26.7246 135.139 28.5935 134.863 29.9951C134.586 31.4902 134.125 32.705 133.479 33.8263ZM132.003 38.405H130.066V33.7328H131.265C131.911 32.705 132.464 31.4902 132.741 30.0886C133.018 28.6869 133.202 26.7246 133.202 24.3886V22.6132H141.689V33.7328H143.534V38.405H141.597V35.6017H132.003V38.405ZM119.55 35.6951H117.52V22.7066H119.55V27.8459H126.191V22.7066H128.221V35.6951H126.191V29.7148H119.55V35.6951ZM108.941 25.1361L106.635 30.5558H111.339L108.941 25.1361ZM104.513 35.6951H102.391L108.019 22.6132H109.956L115.583 35.6951H113.461L112.077 32.4246H105.989L104.513 35.6951ZM92.7054 24.5754V22.7066H103.222V24.5754H98.9782V35.6951H96.9488V24.5754H92.7054ZM87.4472 35.882C85.51 35.882 83.9418 35.2279 82.6503 34.0132C81.3589 32.705 80.7131 31.1164 80.7131 29.1541C80.7131 27.1918 81.3589 25.6033 82.6503 24.2951C83.9418 22.9869 85.51 22.4263 87.4472 22.4263C88.7387 22.4263 89.9379 22.7066 90.9527 23.2673V25.323C89.9379 24.6689 88.7387 24.2951 87.4472 24.2951C86.0635 24.2951 84.9565 24.7623 84.0341 25.6968C83.1116 26.6312 82.6503 27.7525 82.6503 29.1541C82.6503 30.5558 83.1116 31.6771 84.0341 32.6115C84.9565 33.5459 86.0635 33.9197 87.4472 33.9197C88.9232 33.9197 90.1224 33.5459 91.1372 32.705V34.7607C90.1224 35.5082 88.9232 35.882 87.4472 35.882Z" fill="white"/>
</svg>
