<svg width="28" height="32" viewBox="0 0 28 32" fill="none" xmlns="http://www.w3.org/2000/svg">
<g clip-path="url(#clip0_18_565)">
<path d="M0.449389 32C0.108129 31.8333 -0.00839916 31.5667 -7.57372e-05 31.1917C0.00824769 26.1917 0.00824769 21.1917 0.00824769 16.2C0.00824769 15.575 0.20801 15.3833 0.832267 15.3833C2.99636 15.3833 5.16045 15.3917 7.32454 15.375C8.07365 15.3667 8.72288 15.525 9.23061 16.1417C10.1462 15.5833 10.9536 14.925 11.686 14.1667C12.8929 12.9083 13.7752 11.4583 14.3828 9.82501C14.5659 9.34168 14.7407 8.85001 14.9405 8.36668C15.5564 6.91668 17.1628 6.22501 18.6444 6.75001C20.1093 7.27501 20.925 8.86668 20.4339 10.3667C19.9262 11.925 19.3436 13.4667 18.7942 15.0083C18.7526 15.1167 18.7193 15.225 18.6694 15.375C18.8109 15.375 18.9191 15.375 19.0273 15.375C21.1581 15.375 23.2889 15.3667 25.4197 15.375C26.6932 15.3833 27.7169 16.2083 27.95 17.45C28.0998 18.225 27.9084 18.9333 27.4006 19.55C27.3257 19.65 27.2342 19.7333 27.1343 19.8417C27.667 20.3667 27.9916 20.9833 27.9916 21.75C27.9916 22.5083 27.692 23.1417 27.1343 23.6833C27.667 24.2167 27.9916 24.8417 27.9916 25.6C27.9916 26.3667 27.692 26.9917 27.1343 27.525C27.1759 27.575 27.2175 27.625 27.2508 27.6667C28.6325 29.1333 27.975 31.4333 26.019 31.9333C25.9607 31.95 25.9108 31.975 25.8525 32C21.4827 32 17.1129 32 12.7431 32C12.3269 31.925 11.9024 31.8833 11.4946 31.775C10.7704 31.575 10.0546 31.3333 9.31384 31.0917C9.02252 31.575 8.53976 31.8333 7.99874 32C5.48506 32 2.97139 32 0.449389 32ZM1.26509 30.75C1.39826 30.75 1.49814 30.75 1.60635 30.75C3.55403 30.75 5.49339 30.75 7.44107 30.75C8.14024 30.75 8.38161 30.5167 8.38161 29.8167C8.38161 28.6417 8.38161 27.4667 8.38161 26.2833C8.38161 26.2 8.38161 26.1167 8.38161 26.0333C8.39826 25.6583 8.67294 25.3917 9.0142 25.3917C9.35546 25.4 9.62181 25.6667 9.63013 26.05C9.63845 27.2167 9.63013 28.3833 9.63845 29.55C9.63845 29.6583 9.70504 29.8333 9.78827 29.8667C10.9952 30.4 12.2437 30.7583 13.5838 30.75C16.4886 30.7333 19.3852 30.7417 22.2901 30.7417C23.3388 30.7417 24.3876 30.7417 25.4446 30.7417C26.019 30.7417 26.4851 30.4083 26.6765 29.9C27.0011 29.025 26.3769 28.1667 25.3947 28.1583C23.8965 28.15 22.3983 28.1583 20.9 28.15C20.7586 28.15 20.6087 28.15 20.4672 28.1167C20.1926 28.0583 20.0011 27.8 20.0094 27.525C20.0094 27.2333 20.2175 26.975 20.5005 26.925C20.6254 26.9 20.7502 26.9083 20.8751 26.9083C22.0071 26.9083 23.139 26.9083 24.2794 26.9083C24.7122 26.9083 25.1533 26.925 25.5861 26.8917C26.302 26.8333 26.7847 26.25 26.7514 25.525C26.7181 24.8583 26.1688 24.3417 25.4779 24.3167C25.3531 24.3167 25.2282 24.3167 25.1034 24.3167C23.6385 24.3167 22.1735 24.3167 20.7003 24.3167C20.2924 24.3167 20.0178 24.0583 20.0094 23.7083C20.0011 23.3417 20.2924 23.075 20.7086 23.075C21.0748 23.0667 21.4327 23.075 21.799 23.075C23.0225 23.075 24.2544 23.0833 25.4779 23.0667C26.1188 23.0583 26.6515 22.5917 26.7431 21.9833C26.8347 21.3333 26.4684 20.7333 25.8525 20.55C25.661 20.4917 25.4446 20.4833 25.2366 20.4833C23.78 20.475 22.3234 20.4833 20.8668 20.4833C20.3008 20.4833 20.0011 20.2583 20.0094 19.85C20.0094 19.4417 20.3091 19.2333 20.8834 19.2333C22.3566 19.2333 23.8382 19.25 25.3115 19.225C25.6194 19.2167 25.9607 19.1333 26.2187 18.975C26.6932 18.6917 26.8596 18.0917 26.7015 17.575C26.535 17.0167 26.0522 16.65 25.4363 16.65C23.755 16.6417 22.0653 16.65 20.384 16.65C19.535 16.65 18.6777 16.6583 17.8287 16.65C17.321 16.6417 17.0546 16.2667 17.1961 15.7833C17.2211 15.6917 17.2544 15.6083 17.2877 15.5167C17.9286 13.7167 18.5861 11.9167 19.2187 10.1083C19.5433 9.19168 19.0939 8.26668 18.2199 7.94168C17.3376 7.61668 16.422 8.04168 16.0558 8.94168C15.8644 9.41668 15.6896 9.89168 15.5148 10.3667C14.4078 13.275 12.535 15.5667 9.89648 17.2083C9.70504 17.3333 9.63845 17.4583 9.64678 17.6833C9.6551 18.675 9.6551 19.6583 9.6551 20.65C9.6551 20.725 9.6551 20.8 9.6551 20.8667C9.63845 21.2417 9.38043 21.5083 9.03084 21.5083C8.68126 21.5083 8.41491 21.2417 8.41491 20.8583C8.40658 19.7583 8.41491 18.65 8.41491 17.55C8.41491 16.8917 8.16521 16.6417 7.51598 16.6417C5.55165 16.6417 3.58732 16.6417 1.61467 16.6417C1.51479 16.6417 1.41491 16.65 1.29838 16.6583C1.26509 21.3417 1.26509 26.025 1.26509 30.75Z" fill="black"/>
<path d="M17.8703 0C18.2116 0.158333 18.3364 0.425 18.3281 0.808333C18.3114 1.71667 18.3281 2.61667 18.3198 3.525C18.3198 3.99167 18.0867 4.25833 17.6955 4.25833C17.3209 4.25833 17.0712 3.975 17.0712 3.51667C17.0629 2.63333 17.0796 1.75 17.0629 0.866667C17.0546 0.491667 17.1711 0.2 17.4957 0.00833333C17.6206 0 17.7454 0 17.8703 0Z" fill="black"/>
<path d="M14.7657 5.09179C14.6409 5.25012 14.5327 5.49179 14.3579 5.55845C14.1831 5.63345 13.8668 5.61679 13.7336 5.50012C13.2509 5.09179 12.8097 4.62512 12.3769 4.16679C12.1688 3.94179 12.2021 3.59179 12.4185 3.36679C12.6349 3.14179 13.0012 3.08346 13.2342 3.30012C13.7003 3.73345 14.1415 4.18345 14.5826 4.64179C14.6659 4.74179 14.6825 4.89179 14.7657 5.09179Z" fill="black"/>
<path d="M21.233 5.69164C21.0832 5.56664 20.8834 5.44997 20.7586 5.2833C20.6171 5.0833 20.6504 4.82497 20.8168 4.64997C21.2496 4.19164 21.6991 3.74164 22.1569 3.3083C22.3816 3.09997 22.7312 3.1333 22.9559 3.34164C23.189 3.5583 23.2473 3.91664 23.0309 4.1583C22.598 4.6333 22.1319 5.07497 21.6741 5.52497C21.5826 5.59997 21.4328 5.61664 21.233 5.69164Z" fill="black"/>
<path d="M4.68596 27.375C5.02722 27.375 5.30189 27.6417 5.31022 27.975C5.31854 28.3167 5.03554 28.6167 4.68596 28.625C4.33638 28.625 4.05338 28.3417 4.0617 27.9833C4.07835 27.6417 4.3447 27.375 4.68596 27.375Z" fill="black"/>
<path d="M9.0224 24.1334C8.67282 24.1417 8.39815 23.8834 8.38982 23.5417C8.3815 23.2001 8.67282 22.8917 9.01408 22.9001C9.34702 22.9001 9.63001 23.1834 9.63001 23.5167C9.63001 23.8584 9.36366 24.1334 9.0224 24.1334Z" fill="black"/>
</g>
<defs>
<clipPath id="clip0_18_565">
<rect width="28" height="32" fill="white"/>
</clipPath>
</defs>
</svg>
