<svg width="35" height="20" viewBox="0 0 35 20" fill="none" xmlns="http://www.w3.org/2000/svg">
<g clip-path="url(#clip0_18_559)">
<path d="M-0.000158009 11.968C0.173109 11.5753 0.483167 11.4236 0.920895 11.4236C3.72965 11.4325 6.54752 11.4325 9.35628 11.4325C9.89432 11.4325 10.2135 11.7181 10.1953 12.1822C10.1861 12.5213 9.93992 12.798 9.59338 12.8426C9.46571 12.8604 9.34716 12.8604 9.21949 12.8604C6.47457 12.8604 3.72965 12.8515 0.98473 12.8694C0.547002 12.8694 0.209587 12.7533 -0.00927734 12.3785C-0.000158009 12.2357 -0.000158009 12.1019 -0.000158009 11.968Z" fill="black"/>
<path d="M24.8591 17.1352C24.2573 17.1352 23.6919 17.1352 23.1174 17.1352C20.8649 17.1352 18.6033 17.1352 16.3508 17.1263C16.0863 17.1263 15.9587 17.1888 15.8766 17.4565C15.4115 18.9826 13.9889 20 12.3748 19.9911C10.7698 19.9821 9.34716 18.929 8.90031 17.4029C8.83647 17.1888 8.7544 17.1174 8.53553 17.1263C7.9063 17.1352 7.28619 17.1352 6.65695 17.1263C6.16451 17.1174 5.83621 16.8318 5.83621 16.4123C5.83621 15.9929 6.16451 15.7073 6.65695 15.7073C7.37738 15.6983 8.08869 15.7073 8.72704 15.7073C8.9915 15.2075 9.17389 14.7077 9.48395 14.3061C10.3776 13.137 11.5996 12.6551 13.0587 12.9139C14.4905 13.1727 15.4389 14.0294 15.8857 15.386C15.9678 15.6359 16.059 15.7073 16.3234 15.7073C17.4725 15.6894 18.6215 15.6983 19.8253 15.6983C20.9287 10.9594 22.0322 6.21151 23.1538 1.42793C22.9623 1.42793 22.8164 1.42793 22.6705 1.42793C17.4086 1.42793 12.1377 1.42793 6.87582 1.42793C6.70255 1.42793 6.52928 1.41901 6.36513 1.38331C6.05508 1.31191 5.84533 1.02633 5.83621 0.722892C5.82709 0.401606 6.04596 0.11602 6.37425 0.0356983C6.50192 0 6.64783 0 6.7755 0C12.466 0 18.1473 0 23.8378 0C24.6312 0 24.9047 0.356983 24.7315 1.10665C24.4853 2.15083 24.2481 3.18608 23.9928 4.2838C24.157 4.2838 24.2846 4.2838 24.4214 4.2838C25.9808 4.30165 27.5493 4.2481 29.0996 4.33735C32.0452 4.51584 34.5986 6.98795 34.9634 9.85274C35.0819 10.8077 34.8083 11.6912 34.6533 12.5926C34.4344 13.8777 34.17 15.1539 33.9238 16.4391C33.8235 16.9389 33.5955 17.1263 33.0848 17.1352C32.7565 17.1441 32.3552 17.037 32.109 17.1798C31.8902 17.3048 31.8537 17.7153 31.7169 17.983C31.0603 19.3039 29.6377 20.1071 28.1512 19.9911C26.6648 19.8751 25.3881 18.8577 24.9503 17.4565C24.9321 17.3494 24.9047 17.2601 24.8591 17.1352ZM32.5923 15.6983C32.8568 14.2972 33.1121 12.9228 33.3857 11.5573C33.5134 10.9326 33.6228 10.3168 33.4769 9.67425C32.9571 7.40741 30.9691 5.77421 28.5981 5.72958C27.0751 5.70281 25.5431 5.72958 24.0202 5.71174C23.7192 5.71174 23.6463 5.82775 23.5916 6.07764C23.09 8.29094 22.5702 10.4953 22.0595 12.6997C21.8315 13.6903 21.6035 14.6899 21.3664 15.7162C21.9774 15.7162 22.5611 15.7162 23.1356 15.7162C23.7192 15.7162 24.2937 15.7162 24.8683 15.7162C25.3972 13.726 26.9931 12.8603 28.3701 12.8693C30.3216 12.8871 31.5071 13.9134 32.0543 15.6983C32.2276 15.6983 32.4008 15.6983 32.5923 15.6983ZM28.4522 14.2972C27.2393 14.2972 26.2635 15.2521 26.2635 16.4391C26.2635 17.5993 27.2393 18.5631 28.4339 18.581C29.6286 18.5988 30.6408 17.6261 30.6408 16.448C30.6408 15.2521 29.665 14.2972 28.4522 14.2972ZM14.5725 16.4302C14.5725 15.2164 13.6241 14.2883 12.393 14.2883C11.1801 14.2883 10.2317 15.2343 10.2317 16.4123C10.2317 17.6082 11.2075 18.5721 12.4204 18.5631C13.615 18.5631 14.5725 17.6171 14.5725 16.4302Z" fill="black"/>
<path d="M5.82689 8.56751C4.63226 8.56751 3.43763 8.57643 2.23387 8.56751C1.69583 8.56751 1.36754 8.15698 1.48609 7.68397C1.57728 7.32699 1.85086 7.1485 2.32507 7.1485C4.33132 7.1485 6.33758 7.1485 8.34383 7.1485C8.7086 7.1485 9.07338 7.13957 9.43815 7.1485C9.90324 7.15742 10.2042 7.45193 10.2042 7.87139C10.1951 8.28192 9.91235 8.55858 9.44727 8.56751C8.24352 8.57643 7.03064 8.56751 5.82689 8.56751Z" fill="black"/>
<path d="M6.54762 4.28376C5.63569 4.28376 4.72376 4.28376 3.81182 4.28376C3.2373 4.28376 2.92725 4.03387 2.92725 3.57871C2.92725 3.13248 3.24642 2.86475 3.8027 2.86475C5.67217 2.86475 7.54163 2.86475 9.40197 2.86475C10.0403 2.86475 10.4051 3.44484 10.1042 3.9357C9.94002 4.20343 9.68467 4.28376 9.37462 4.28376C8.43533 4.28376 7.48691 4.28376 6.54762 4.28376Z" fill="black"/>
</g>
<defs>
<clipPath id="clip0_18_559">
<rect width="35" height="20" fill="white"/>
</clipPath>
</defs>
</svg>
