<svg width="35" height="35" viewBox="0 0 35 35" fill="none" xmlns="http://www.w3.org/2000/svg">
<g clip-path="url(#clip0_18_551)">
<path d="M1.38487 35.0002C0.195346 34.508 -0.195243 33.7059 0.0888218 32.4025C0.479412 30.6252 1.03867 28.9208 2.02402 27.3895C2.89397 26.0406 4.02135 24.9924 5.46831 24.3179C5.53932 24.2814 5.61034 24.245 5.68136 24.2268C6.03644 24.1174 6.37377 24.2632 6.5158 24.6005C6.65783 24.9286 6.54243 25.2841 6.21398 25.4755C5.86777 25.676 5.49494 25.84 5.16649 26.0679C3.61301 27.107 2.68092 28.6382 2.0684 30.3882C1.78434 31.1994 1.58016 32.038 1.36712 32.8765C1.22508 33.4143 1.42925 33.6512 1.953 33.6512C4.0391 33.6512 6.12521 33.6512 8.21131 33.6512C8.84158 33.6512 8.85046 33.633 9.09902 33.0588C9.29431 32.6213 9.50736 32.202 9.72929 31.7828C9.87132 31.5002 10.111 31.3908 10.4128 31.3999C11.842 31.4182 13.2801 31.3908 14.7093 31.4637C17.0795 31.5822 19.3254 31.1083 21.5002 30.133C25.0244 28.5562 28.5664 27.0341 32.1083 25.4846C32.2415 25.4299 32.3657 25.357 32.4723 25.2567C32.9339 24.8466 32.8007 24.1083 32.2148 23.9624C31.913 23.8895 31.5491 23.9169 31.2384 23.9989C28.9747 24.6096 26.7199 25.2385 24.4652 25.8674C24.3587 25.8947 24.2521 25.9676 24.1545 26.0406C23.7284 26.3596 23.3467 26.7606 22.8762 26.9885C21.0919 27.8544 19.2455 28.5744 17.3458 29.1122C17.2126 29.1486 17.0617 29.1942 16.9197 29.1851C16.6001 29.1669 16.3427 28.8934 16.3072 28.5653C16.2805 28.2463 16.4758 27.9637 16.8132 27.8453C17.6476 27.5718 18.4909 27.3257 19.3076 27.0158C20.293 26.6421 21.2606 26.2137 22.2282 25.7945C22.4501 25.6942 22.6631 25.5757 22.8673 25.4299C23.1159 25.2476 23.2845 25.0197 23.1602 24.6734C23.0448 24.3453 22.7697 24.1174 22.4235 24.1538C21.8287 24.2085 21.2339 24.3088 20.6392 24.3908C19.0235 24.6096 17.4168 24.9286 15.7923 25.0197C14.4519 25.0926 13.0937 24.9195 11.7444 24.8374C11.3627 24.8101 11.1319 24.4911 11.1585 24.1083C11.1851 23.7255 11.4869 23.4611 11.8953 23.4885C12.4634 23.5249 13.0227 23.5523 13.5908 23.6161C15.1177 23.8075 16.6179 23.607 18.127 23.3791C19.4496 23.1695 20.7812 22.9781 22.1128 22.8049C23.178 22.6591 24.048 23.2242 24.4297 24.2632C24.4474 24.3179 24.4741 24.3635 24.5007 24.4364C25.708 24.1083 26.8975 23.771 28.0959 23.4429C29.1789 23.1512 30.253 22.8231 31.3449 22.577C32.5877 22.2854 33.7861 23.0236 34.0257 24.245C34.0257 24.2632 34.0524 24.2814 34.0701 24.2997C34.0701 24.5549 34.0701 24.801 34.0701 25.0471C33.8127 26.0497 33.1469 26.6057 32.2237 26.9156C31.8509 27.0432 31.4869 27.2255 31.123 27.3895C27.6964 28.8752 24.2788 30.3791 20.8433 31.8466C19.4852 32.4299 18.0648 32.7945 16.5824 32.7945C14.8868 32.7945 13.1913 32.7854 11.4958 32.7762C10.6791 32.7762 10.6347 32.7489 10.3507 33.5419C10.0577 34.3348 9.5695 34.8361 8.77057 35.0275C6.31163 35.0002 3.85269 35.0002 1.38487 35.0002Z" fill="black"/>
<path d="M22.6898 8.13827e-05C22.9206 0.100342 23.178 0.164144 23.391 0.300863C24.0479 0.720134 24.3586 1.33993 24.3586 2.13289C24.3586 4.92196 24.3586 7.71102 24.3586 10.5001C24.3586 10.6368 24.3586 10.7644 24.3586 10.9376C24.6072 10.9376 24.8291 10.9376 25.0422 10.9376C25.6902 10.9467 26.1696 11.2475 26.427 11.8673C26.6844 12.4871 26.5424 13.0522 26.0808 13.5261C24.7315 14.9298 23.3822 16.3243 22.0329 17.728C20.7546 19.0496 19.4674 20.3803 18.1891 21.7019C17.4523 22.4675 16.6267 22.4584 15.8899 21.7019C13.2623 18.9858 10.6347 16.2696 8.01601 13.5535C7.54553 13.0704 7.39462 12.5144 7.64318 11.8673C7.87398 11.2748 8.38885 10.9376 9.0635 10.9376C9.26768 10.9376 9.48072 10.9376 9.7204 10.9376C9.7204 10.7826 9.7204 10.655 9.7204 10.5365C9.7204 7.84774 9.7204 5.15894 9.7204 2.47013C9.7204 1.03003 10.0755 0.501384 11.3804 -0.0090332C15.1443 8.13827e-05 18.917 8.13827e-05 22.6898 8.13827e-05ZM17.044 1.36727C15.3573 1.36727 13.6707 1.36727 11.984 1.36727C11.2295 1.36727 11.0342 1.56779 11.0342 2.33342C11.0342 5.35946 11.0342 8.39462 11.0342 11.4207C11.0342 12.0587 10.8123 12.2957 10.1998 12.2957C9.87131 12.2957 9.53399 12.2865 9.20554 12.2957C9.09013 12.2957 8.98361 12.3503 8.86821 12.3777C8.93035 12.478 8.96586 12.5964 9.04575 12.6785C11.6112 15.3399 14.1856 18.0014 16.751 20.6628C16.9729 20.8907 17.0883 20.8816 17.3014 20.6537C18.4465 19.4506 19.6094 18.2566 20.7634 17.0626C22.1749 15.5951 23.5952 14.1368 25.0067 12.6694C25.0866 12.5873 25.1221 12.4688 25.1753 12.3686C25.0777 12.3412 24.9712 12.2957 24.8735 12.2957C24.5539 12.2865 24.2344 12.2957 23.9059 12.2957C23.2224 12.2957 23.0182 12.0769 23.0182 11.3751C23.0182 8.33081 23.0182 5.29566 23.0182 2.25138C23.0182 1.59513 22.7963 1.35815 22.166 1.35815C20.4616 1.36727 18.7572 1.36727 17.044 1.36727Z" fill="black"/>
<path d="M8.16699 24.1354C8.16699 23.7617 8.45993 23.4609 8.82389 23.4609C9.17897 23.4609 9.48079 23.7708 9.48967 24.1354C9.49854 24.5182 9.18785 24.8281 8.81501 24.8281C8.44218 24.8099 8.16699 24.5182 8.16699 24.1354Z" fill="black"/>
<path d="M14.736 13.8726C14.2921 13.8635 13.9726 13.4351 14.088 13.0158C14.1235 12.8791 14.2034 12.7424 14.2744 12.6148C15.7302 10.0262 17.186 7.42856 18.6419 4.84002C18.704 4.73065 18.7661 4.62127 18.846 4.53012C19.0502 4.29315 19.3698 4.23846 19.6361 4.37518C19.9202 4.52101 20.0533 4.84002 19.9734 5.14992C19.9468 5.25018 19.9024 5.34132 19.8491 5.43247C18.3578 8.09393 16.8576 10.7554 15.3662 13.4168C15.2153 13.6812 15.0289 13.8543 14.736 13.8726Z" fill="black"/>
<path d="M14.3808 4.30225C15.4815 4.30225 16.3692 5.2137 16.3692 6.34391C16.3692 7.46501 15.4727 8.39469 14.3808 8.40381C13.28 8.41292 12.3657 7.47412 12.3746 6.3348C12.3835 5.20459 13.2712 4.30225 14.3808 4.30225ZM15.0377 6.35303C15.0377 5.98844 14.7536 5.67855 14.3985 5.66943C14.0257 5.66032 13.715 5.9611 13.715 6.3348C13.715 6.7085 14.0257 7.02751 14.3897 7.02751C14.7359 7.02751 15.0288 6.71761 15.0377 6.35303Z" fill="black"/>
<path d="M19.6805 9.77082C20.7813 9.76171 21.6778 10.6641 21.6956 11.7943C21.7045 12.9336 20.799 13.8724 19.6983 13.8724C18.6064 13.8724 17.7098 12.9427 17.7009 11.8216C17.7009 10.6914 18.5886 9.77993 19.6805 9.77082ZM19.716 11.138C19.3432 11.1289 19.0325 11.4297 19.0325 11.8125C19.0325 12.168 19.3254 12.487 19.6805 12.4961C20.0445 12.5052 20.364 12.1862 20.364 11.8125C20.364 11.4479 20.0711 11.1471 19.716 11.138Z" fill="black"/>
</g>
<defs>
<clipPath id="clip0_18_551">
<rect width="34.0789" height="35" fill="white"/>
</clipPath>
</defs>
</svg>
