<svg width="35" height="31" viewBox="0 0 35 31" fill="none" xmlns="http://www.w3.org/2000/svg">
<g clip-path="url(#clip0_18_573)">
<path d="M35.0001 19.121C34.8907 19.7806 34.8087 20.4536 34.6583 21.1065C33.4688 26.3225 28.9981 30.2799 23.584 30.9126C17.1036 31.6731 11.0401 27.5878 9.48151 21.3555C8.55866 17.6807 9.20124 14.2415 11.334 11.0782C11.3751 11.0109 11.4229 10.9503 11.4708 10.883C11.4844 10.8629 11.4913 10.8427 11.587 10.735C11.4092 10.6004 11.2178 10.4792 11.0538 10.3244C10.5684 9.86676 10.0967 9.39564 9.62506 8.91778C9.21491 8.5005 9.20124 7.98226 9.60456 7.56498C10.1241 7.03328 10.6573 6.50832 11.1973 5.99681C11.628 5.59299 12.1544 5.61318 12.5919 6.04392C13.2139 6.64965 13.8292 7.26212 14.4649 7.89477C16.126 6.73042 17.9444 5.99008 19.9405 5.65356C19.9473 5.55261 19.9542 5.47857 19.9542 5.39781C19.9542 5.17571 19.9542 4.9536 19.9542 4.69112C19.7628 4.68439 19.585 4.67766 19.4073 4.6642C18.9288 4.63055 18.587 4.31422 18.5801 3.8431C18.5665 2.847 18.5665 1.84418 18.5801 0.848089C18.587 0.350043 18.9424 0.0135253 19.4551 0.00679498C20.1251 -0.00666573 20.8018 6.4627e-05 21.4717 0.00679498C21.8135 0.0135253 22.0323 0.215436 22.0323 0.511571C22.0323 0.807707 21.8135 1.00962 21.4717 1.01635C20.8565 1.02308 20.2481 1.01635 19.6192 1.01635C19.6192 1.90475 19.6192 2.76624 19.6192 3.64119C20.2549 3.64119 20.877 3.64119 21.5333 3.64119C21.5333 3.27102 21.5264 2.91431 21.5333 2.5576C21.5401 2.19416 21.7452 1.96533 22.046 1.97206C22.3467 1.97206 22.5518 2.20762 22.5518 2.57106C22.5587 2.91431 22.5518 3.26429 22.5518 3.64119C23.1876 3.64119 23.8096 3.64119 24.4522 3.64119C24.4522 2.78643 24.4522 1.93168 24.4522 1.02308C24.2813 1.02308 24.1036 1.02981 23.9327 1.02308C23.6182 1.00289 23.4131 0.794246 23.42 0.504841C23.4268 0.235627 23.6251 0.0337164 23.9258 0.0202557C24.1788 0.00679498 24.4249 0.00679498 24.6778 0.0202557C25.1495 0.0471771 25.4913 0.383695 25.4981 0.848089C25.5118 1.84418 25.5118 2.847 25.4981 3.8431C25.4913 4.31422 25.1563 4.63728 24.6778 4.67093C24.5069 4.68439 24.3428 4.67093 24.1446 4.67093C24.1446 5.01418 24.1446 5.31704 24.1446 5.66029C26.1133 5.99008 27.9317 6.72369 29.6202 7.91496C29.9551 7.57171 30.2901 7.22846 30.6319 6.88522C30.919 6.59581 31.2061 6.30641 31.5001 6.03046C31.9376 5.61991 32.4571 5.60645 32.9014 6.02373C33.4278 6.52178 33.9405 7.02655 34.4464 7.54479C34.877 7.98226 34.8702 8.50723 34.4327 8.9447C33.8174 9.55717 33.1954 10.1629 32.5528 10.7888C32.7032 11.0177 32.8467 11.2263 32.9835 11.4417C34.0772 13.1579 34.7403 15.0289 34.9249 17.048C34.9317 17.1557 34.9659 17.2634 34.9864 17.3711C35.0001 17.9566 35.0001 18.5355 35.0001 19.121ZM22.0255 29.9972C28.5606 30.0309 33.9405 24.761 33.9747 18.2932C34.0089 11.8118 28.6632 6.52178 22.0596 6.49486C15.5176 6.46793 10.1446 11.7243 10.1173 18.1989C10.0831 24.687 15.4151 29.9703 22.0255 29.9972ZM11.8878 6.8381C11.4024 7.32269 10.9171 7.80054 10.4796 8.23129C11.0333 8.77645 11.6212 9.34853 12.1475 9.86676C12.6055 9.42256 13.0977 8.95143 13.5762 8.5005C13.0225 7.94861 12.4415 7.38326 11.8878 6.8381ZM30.5567 8.47358C31.0147 8.93797 31.5001 9.42929 31.9649 9.90041C32.5118 9.36199 33.086 8.78991 33.6465 8.24475C33.168 7.77362 32.6827 7.29577 32.2178 6.8381C31.6573 7.39672 31.0694 7.9688 30.5567 8.47358ZM23.085 4.69785C22.3809 4.69785 21.6905 4.69785 21.0069 4.69785C21.0069 4.98726 21.0069 5.24974 21.0069 5.49876C21.7178 5.49876 22.4014 5.49876 23.085 5.49876C23.085 5.21609 23.085 4.96034 23.085 4.69785Z" fill="black"/>
<path d="M0 18.0441C0.198242 17.795 0.458008 17.721 0.772461 17.7412C1.0459 17.7614 1.31934 17.7345 1.58594 17.7479C1.92773 17.7614 2.1123 17.9431 2.12598 18.2325C2.13281 18.5354 1.94141 18.7305 1.58594 18.7507C1.24414 18.7642 0.902344 18.7911 0.567383 18.744C0.369141 18.7171 0.191406 18.5556 0 18.4546C0 18.3133 0 18.1787 0 18.0441Z" fill="black"/>
<path d="M4.65523 22.3516C5.68745 22.3516 6.72651 22.3516 7.75874 22.3516C8.15523 22.3516 8.38765 22.5468 8.38765 22.8564C8.38081 23.166 8.14155 23.3612 7.7519 23.3612C5.67378 23.3612 3.58882 23.3612 1.51069 23.3612C1.20308 23.3612 0.963819 23.2669 0.902296 22.9439C0.847608 22.6949 0.956983 22.4997 1.18941 22.3987C1.29878 22.3516 1.4355 22.3516 1.55855 22.3516C2.58394 22.3449 3.61616 22.3516 4.65523 22.3516Z" fill="black"/>
<path d="M4.64835 14.1472C3.60245 14.1472 2.54971 14.1472 1.50381 14.1472C1.10049 14.1472 0.874907 13.9588 0.881743 13.6357C0.888579 13.3194 1.10733 13.1377 1.51749 13.1377C3.58877 13.1377 5.6669 13.1377 7.73819 13.1377C7.77237 13.1377 7.80655 13.1377 7.84073 13.1377C8.16202 13.1579 8.38077 13.3598 8.38077 13.6357C8.3876 13.9251 8.16885 14.1405 7.82022 14.1472C6.76749 14.154 5.70792 14.1472 4.64835 14.1472Z" fill="black"/>
<path d="M5.50293 17.7481C5.9541 17.7481 6.41211 17.7414 6.86328 17.7481C7.2666 17.7548 7.49902 17.9366 7.50586 18.2394C7.51269 18.5423 7.27344 18.7509 6.88379 18.7509C5.96094 18.7577 5.04492 18.7577 4.12207 18.7509C3.73242 18.7509 3.49316 18.5423 3.49316 18.2394C3.5 17.9366 3.73242 17.7481 4.13574 17.7481C4.59375 17.7414 5.05176 17.7481 5.50293 17.7481Z" fill="black"/>
<path d="M32.4159 18.2528C32.3613 23.3073 28.6083 27.6282 23.5087 28.308C19.6054 28.8262 16.372 27.4936 13.8769 24.4784C13.6171 24.1621 13.6171 23.8861 13.8632 23.6775C14.1161 23.4689 14.4169 23.5227 14.6767 23.8525C16.0165 25.5351 17.7392 26.6388 19.8447 27.1571C25.1083 28.456 30.5429 24.8351 31.247 19.5585C31.8964 14.6656 28.7656 10.2841 23.8847 9.26109C18.7577 8.19096 13.5829 11.7446 12.8378 16.8529C12.5986 18.5086 12.7763 20.1171 13.4052 21.6719C13.5009 21.9141 13.5624 22.143 13.3642 22.3651C13.0976 22.6545 12.6669 22.5468 12.496 22.143C11.9081 20.77 11.621 19.3297 11.7236 17.8423C11.9765 13.9252 13.8632 10.9841 17.4042 9.17359C23.5087 6.05744 31.0283 9.77933 32.2109 16.4491C32.3066 17.0481 32.3476 17.6538 32.4159 18.2528Z" fill="black"/>
<path d="M22.0253 19.9152C21.2802 19.8479 20.6308 19.3566 20.453 18.6701C20.2616 17.9566 20.5487 17.2298 21.2118 16.8529C22.5517 16.0789 23.9052 15.3183 25.2519 14.5511C25.6142 14.3424 25.9833 14.1405 26.3456 13.9319C26.9472 13.5954 27.5419 13.6088 28.1161 13.9723C28.2802 14.08 28.3896 14.08 28.54 13.9723C28.6425 13.8982 28.7519 13.8444 28.8681 13.7973C29.1279 13.6829 29.3466 13.7636 29.4902 13.9857C29.6474 14.228 29.5995 14.4569 29.3808 14.6453C29.0321 14.9414 28.9228 15.1366 28.8202 15.601C28.7177 16.0721 28.4784 16.4558 28.0478 16.6981C26.3183 17.6874 24.5888 18.6768 22.8456 19.646C22.6064 19.7873 22.3056 19.8277 22.0253 19.9152ZM22.1073 18.8585C22.2167 18.8114 22.3808 18.7508 22.538 18.6633C23.6796 18.0172 24.8212 17.3711 25.9628 16.7183C26.4755 16.4289 26.9882 16.1394 27.4941 15.8433C27.7607 15.6885 27.87 15.4529 27.8017 15.1568C27.7402 14.8943 27.5488 14.7126 27.2753 14.7059C27.0976 14.7059 26.8993 14.7799 26.7353 14.8674C25.6073 15.4933 24.4931 16.1394 23.3652 16.7721C22.8251 17.0817 22.2782 17.3846 21.745 17.7009C21.4716 17.8624 21.3554 18.1047 21.4511 18.4143C21.54 18.7037 21.745 18.8383 22.1073 18.8585Z" fill="black"/>
<path d="M14.9091 22.7688C14.8066 22.6746 14.6084 22.5669 14.5537 22.4054C14.5058 22.2573 14.5537 21.9746 14.663 21.9006C15.1484 21.5775 15.6611 21.2814 16.1806 21.0189C16.3925 20.9112 16.6386 20.9987 16.7685 21.2275C16.8916 21.4429 16.8984 21.6987 16.6865 21.8333C16.1875 22.1563 15.6543 22.4323 15.1347 22.7217C15.1005 22.7486 15.0459 22.7419 14.9091 22.7688Z" fill="black"/>
<path d="M29.5792 22.1699C29.5723 22.5939 29.2032 22.8564 28.8819 22.6949C28.3897 22.4458 27.9044 22.1699 27.4395 21.8805C27.2003 21.7324 27.1593 21.4767 27.3096 21.2276C27.4532 20.9921 27.6993 20.9113 27.9249 21.0257C28.4307 21.2815 28.9161 21.5709 29.3946 21.867C29.504 21.9411 29.545 22.1093 29.5792 22.1699Z" fill="black"/>
<path d="M16.4132 15.5539C16.2149 15.4799 16.1055 15.4529 16.0098 15.3991C15.6133 15.1837 15.2237 14.9616 14.8341 14.7328C14.5128 14.5443 14.4239 14.2684 14.5743 14.0059C14.7247 13.7434 15.0186 13.6828 15.3399 13.8578C15.7637 14.0934 16.1876 14.329 16.6046 14.578C16.8233 14.7126 16.919 14.9347 16.8096 15.1568C16.7276 15.3183 16.5362 15.4327 16.4132 15.5539Z" fill="black"/>
<path d="M19.2773 12.7204C19.1885 12.8146 19.0859 13.0367 18.9355 13.0771C18.7646 13.1242 18.4638 13.0636 18.375 12.9425C18.0537 12.4915 17.7734 12.0002 17.5137 11.5022C17.4043 11.2935 17.4795 11.058 17.7051 10.9166C17.917 10.782 18.1836 10.7686 18.3203 10.9705C18.6553 11.4685 18.9424 12.0069 19.2431 12.5252C19.2636 12.5521 19.2568 12.5925 19.2773 12.7204Z" fill="black"/>
<path d="M21.5333 10.9907C21.5333 10.7484 21.5265 10.4994 21.5333 10.2571C21.547 9.96098 21.7521 9.77253 22.0255 9.7658C22.2989 9.75907 22.5314 9.94752 22.545 10.2369C22.5655 10.7619 22.5655 11.2869 22.545 11.8118C22.5314 12.1012 22.2989 12.2829 22.0187 12.2695C21.7452 12.256 21.5538 12.0676 21.5333 11.7714C21.5333 11.7513 21.5333 11.7243 21.5333 11.7041C21.5333 11.4618 21.5333 11.2263 21.5333 10.9907Z" fill="black"/>
<path d="M26.6601 25.2052C26.5371 25.3466 26.4346 25.5687 26.2842 25.609C26.1133 25.6494 25.8057 25.5956 25.7168 25.4677C25.3955 25.01 25.1221 24.5187 24.8623 24.0274C24.7392 23.7986 24.8486 23.5832 25.0537 23.4486C25.2656 23.3073 25.5322 23.3005 25.6689 23.5024C26.0039 24.0005 26.291 24.5389 26.5918 25.0571C26.6055 25.0841 26.5986 25.1244 26.6055 25.1581C26.6191 25.1716 26.6396 25.1918 26.6601 25.2052Z" fill="black"/>
<path d="M26.6532 11.2532C26.5848 11.4417 26.5575 11.5493 26.5028 11.6436C26.2841 12.0339 26.0585 12.4176 25.8261 12.8012C25.6278 13.1242 25.3612 13.2117 25.0878 13.0637C24.8143 12.9156 24.7528 12.6329 24.9305 12.3099C25.1698 11.8926 25.4091 11.4753 25.662 11.0648C25.7987 10.8427 26.0243 10.7552 26.2499 10.8561C26.4139 10.9436 26.5302 11.1321 26.6532 11.2532Z" fill="black"/>
<path d="M18.0743 25.663C17.5958 25.6495 17.3565 25.2861 17.5343 24.9428C17.7803 24.4784 18.0469 24.0275 18.3341 23.5833C18.4844 23.3477 18.7305 23.2939 18.9903 23.4217C19.2364 23.5496 19.3389 23.8256 19.2022 24.0813C18.9493 24.5457 18.6895 24.9966 18.4024 25.4409C18.3204 25.562 18.1358 25.6226 18.0743 25.663Z" fill="black"/>
<path d="M22.5586 25.5147C22.5586 25.7368 22.5654 25.9589 22.5586 26.181C22.5449 26.5243 22.3467 26.7329 22.0527 26.7329C21.752 26.7329 21.5469 26.5243 21.54 26.1878C21.5332 25.7167 21.5332 25.2523 21.54 24.7811C21.5469 24.4446 21.7451 24.2292 22.0459 24.2292C22.3467 24.2292 22.5518 24.4379 22.5654 24.7744C22.5654 25.0234 22.5586 25.2657 22.5586 25.5147Z" fill="black"/>
<path d="M14.6905 18.7508C14.4513 18.7508 14.212 18.7575 13.9728 18.7508C13.631 18.7374 13.4054 18.522 13.419 18.2393C13.4259 17.9634 13.6446 17.7615 13.9659 17.7547C14.4581 17.7413 14.9435 17.7413 15.4356 17.7547C15.7638 17.7615 15.9689 17.9701 15.9689 18.246C15.9689 18.522 15.7638 18.7239 15.4425 18.7508C15.422 18.7508 15.3946 18.7508 15.3741 18.7508C15.1417 18.7508 14.9161 18.7508 14.6905 18.7508Z" fill="black"/>
<path d="M29.3945 17.7479C29.6475 17.7479 29.8936 17.7345 30.1465 17.7479C30.4541 17.7614 30.6523 17.9633 30.6592 18.2258C30.6728 18.5017 30.4609 18.7306 30.1465 18.744C29.6475 18.7575 29.1416 18.7575 28.6426 18.744C28.3213 18.7373 28.1094 18.5152 28.1094 18.246C28.1094 17.97 28.3213 17.7614 28.6426 17.7479C28.8955 17.7345 29.1484 17.7479 29.3945 17.7479Z" fill="black"/>
</g>
<defs>
<clipPath id="clip0_18_573">
<rect width="35" height="31" fill="white"/>
</clipPath>
</defs>
</svg>
