<svg width="31" height="31" viewBox="0 0 31 31" fill="none" xmlns="http://www.w3.org/2000/svg">
<g clip-path="url(#clip0_18_546)">
<path d="M16.4645 31C15.8188 31 15.1731 31 14.5275 31C14.4468 30.9839 14.3741 30.9597 14.2934 30.9516C13.5751 30.8467 12.8487 30.7822 12.1466 30.6369C6.13382 29.3863 1.23483 24.2707 0.242124 18.2031C0.145275 17.6302 0.0807081 17.0492 0 16.4683C0 15.8228 0 15.1773 0 14.5318C0.0161416 14.443 0.0403541 14.3543 0.0484249 14.2655C0.153345 13.5797 0.209841 12.8858 0.355116 12.208C2.45353 2.33996 13.5348 -2.92084 22.5176 1.68639C28.5384 4.77671 31.8474 11.2882 30.7982 17.9691C30.7175 18.4613 30.5319 18.8405 30.1768 19.1955C26.44 22.9071 22.7193 26.6268 19.0068 30.3545C18.7808 30.5805 18.5387 30.7176 18.2239 30.758C17.6347 30.8306 17.0536 30.9194 16.4645 31ZM18.0706 27.5305C17.9737 27.5466 17.893 27.5466 17.8123 27.5628C16.1336 27.8936 14.4629 27.8613 12.8003 27.4901C5.0604 25.7554 0.968498 17.1945 4.47123 10.0859C7.1346 4.67989 13.2281 2.02528 19.0229 3.73585C20.0075 4.02632 20.9276 4.43783 21.8073 4.96229C22.1867 5.18822 22.3077 5.51903 22.1302 5.84178C21.9526 6.16453 21.5975 6.22908 21.2101 6.01123C21.1375 5.97088 21.0729 5.93054 21.0003 5.89019C18.6678 4.57499 16.1739 4.13122 13.5348 4.5992C7.93361 5.60779 3.98698 10.7153 4.47123 16.3715C4.77792 20.0024 6.48086 22.8426 9.53163 24.8194C11.9852 26.417 14.697 26.8931 17.5863 26.3928C17.8769 26.3444 17.9576 26.2314 17.9414 25.941C17.9172 25.6182 17.9495 25.2955 17.9737 24.9727C18.2481 21.4144 20.9034 18.2515 24.3739 17.38C25.0518 17.2106 25.754 17.1299 26.4803 17.0089C26.5046 16.6781 26.553 16.3069 26.5691 15.9357C26.6418 13.7411 26.1252 11.6997 25.0034 9.81159C24.7774 9.42429 24.842 9.07734 25.1567 8.89176C25.4796 8.69811 25.8105 8.81107 26.0364 9.19837C27.3036 11.3285 27.8685 13.6362 27.7717 16.1052C27.7555 16.4441 27.7152 16.783 27.691 17.1057C28.3447 17.2671 28.9742 17.4204 29.6199 17.5737C29.636 17.5334 29.6522 17.5011 29.6522 17.4607C29.8297 16.1375 29.8378 14.8061 29.636 13.4829C29.0953 9.95683 27.4731 7.01982 24.7855 4.67182C20.177 0.637461 13.1635 0.0242385 8.03046 3.35662C2.849 6.72127 0.581099 11.5625 1.40432 17.7109C1.92892 21.6242 3.9547 24.7306 7.1346 27.0706C9.39443 28.7327 11.9529 29.6364 14.7454 29.7575C15.7946 29.8059 16.8519 29.6526 17.9091 29.5799C18.1674 29.5638 18.5871 29.1442 18.5387 28.9829C18.3934 28.5068 18.232 28.0308 18.0706 27.5305ZM19.5152 28.0308C22.6386 24.9082 25.7701 21.7775 28.8935 18.6549C26.7386 17.8642 23.5749 18.2192 21.315 20.4865C19.0633 22.7538 18.7243 25.9329 19.5152 28.0308Z" fill="black"/>
<path d="M15.8431 19.2601C14.5921 19.2601 13.3411 19.2601 12.0902 19.2601C11.6382 19.2601 11.4526 19.1229 11.3476 18.6711C10.9118 16.7749 10.4841 14.8869 10.0563 12.9907C9.99175 12.7083 9.99982 12.442 10.2581 12.2565C10.5083 12.0709 10.7585 12.1274 11.0167 12.2645C12.6067 13.1198 14.4065 12.5711 15.2458 10.9816C15.375 10.7315 15.5445 10.554 15.8431 10.554C16.1417 10.554 16.3031 10.7476 16.4403 10.9977C17.2797 12.5711 19.0875 13.1279 20.6533 12.2807C20.9277 12.1354 21.1779 12.0628 21.4362 12.2726C21.6944 12.4743 21.6863 12.7406 21.6218 13.0391C21.186 14.9111 20.7663 16.7911 20.3385 18.663C20.2336 19.131 20.056 19.2682 19.5879 19.2682C18.345 19.2601 17.0941 19.2601 15.8431 19.2601ZM15.8431 12.3049C14.6728 13.6201 13.2281 14.1042 11.4929 13.7653C11.501 13.8541 11.501 13.9105 11.5171 13.967C11.7996 15.2257 12.0982 16.4764 12.3726 17.7351C12.4211 17.9772 12.5098 18.0579 12.76 18.0498C14.8181 18.0337 16.8761 18.0417 18.9342 18.0417C19.0311 18.0417 19.136 18.0417 19.2409 18.0417C19.5637 16.6055 19.8866 15.1935 20.2175 13.7492C18.45 14.1123 17.0134 13.6039 15.8431 12.3049Z" fill="black"/>
<path d="M23.7525 6.64868C24.0915 6.64868 24.3497 6.89881 24.3497 7.22963C24.3578 7.56852 24.0834 7.85092 23.7444 7.84285C23.4135 7.83478 23.1553 7.56852 23.1553 7.2377C23.1633 6.90688 23.4135 6.65675 23.7525 6.64868Z" fill="black"/>
</g>
<defs>
<clipPath id="clip0_18_546">
<rect width="31" height="31" fill="white"/>
</clipPath>
</defs>
</svg>
