<svg width="15" height="15" viewBox="0 0 15 15" fill="none" xmlns="http://www.w3.org/2000/svg">
<path d="M12.429 0.899963H2.39577C1.26298 0.899963 0.399902 1.76304 0.399902 2.89583V12.9291C0.399902 14.0619 1.26298 14.925 2.39577 14.925H12.429C13.5618 14.925 14.4249 14.0619 14.4249 12.9291V2.89583C14.4249 1.76304 13.5618 0.899963 12.429 0.899963ZM7.4124 12.12C9.73192 12.12 11.6199 10.2859 11.6199 8.07429C11.6199 7.69669 11.566 7.26515 11.4581 6.9415H12.6448V12.6594C12.6448 12.9291 12.429 13.1988 12.1054 13.1988H2.71942C2.44971 13.1988 2.18 12.983 2.18 12.6594V6.88756H3.42067C3.31279 7.26515 3.25885 7.64275 3.25885 8.02035C3.2049 10.2859 5.09288 12.12 7.4124 12.12ZM7.4124 10.5017C5.90202 10.5017 4.71529 9.31496 4.71529 7.85852C4.71529 6.40208 5.90202 5.21535 7.4124 5.21535C8.92278 5.21535 10.1095 6.40208 10.1095 7.85852C10.1095 9.3689 8.92278 10.5017 7.4124 10.5017ZM12.5909 4.72987C12.5909 5.05352 12.3211 5.32323 11.9975 5.32323H10.4871C10.1635 5.32323 9.89375 5.05352 9.89375 4.72987V3.27342C9.89375 2.94977 10.1635 2.68006 10.4871 2.68006H11.9975C12.3211 2.68006 12.5909 2.94977 12.5909 3.27342V4.72987Z" fill="url(#paint0_linear_18_135)"/>
<defs>
<linearGradient id="paint0_linear_18_135" x1="3.38021" y1="13.3471" x2="12.6718" y2="3.70496" gradientUnits="userSpaceOnUse">
<stop stop-color="#EEA054"/>
<stop offset="0.502762" stop-color="#D64763"/>
<stop offset="1" stop-color="#B62A99"/>
</linearGradient>
</defs>
</svg>
