<svg width="32" height="32" viewBox="0 0 32 32" fill="none" xmlns="http://www.w3.org/2000/svg">
<g clip-path="url(#clip0_18_430)">
<path d="M29.0678 18.1706L28.9264 15.6491L27.3871 17.6512C27.2645 17.8106 27.0036 18.0925 26.6704 18.3494C26.8021 17.9133 26.9196 17.4159 26.9973 16.8673C27.2661 14.9674 27.0987 12.0515 24.775 8.949L23.8 7.64725L23.1611 9.14294C22.4242 10.8682 21.2318 11.7338 20.1236 11.3479C19.2705 11.0511 18.5771 10.0747 18.2213 8.669C17.8895 7.35787 17.6966 5.05069 18.6629 1.50469L19.0729 0L17.5514 0.34275C12.4193 1.49887 8.96095 5.1435 7.5502 10.8825C6.9572 13.2949 6.84551 15.5805 6.86213 17.1264C5.64951 16.146 5.04395 15.2858 5.02807 15.2631L3.87301 13.5661L3.34688 15.5531C3.0577 16.6452 2.91113 17.775 2.91113 18.9111C2.91113 26.0744 8.69551 31.9111 15.8386 31.998C15.8923 31.9994 15.9461 32.0001 16.0001 32.0001C16.0541 32.0001 16.1079 31.9994 16.1616 31.998C23.3047 31.9111 29.089 26.0744 29.089 18.9111C29.089 18.6714 29.0819 18.4223 29.0678 18.1706ZM16.0001 30.1234C13.5791 30.1234 11.6096 28.1539 11.6096 25.7329C11.6096 21.5081 13.6075 19.6154 15.1649 18.7819C14.9664 19.8545 15.1424 20.8709 15.4729 21.6276C15.9656 22.7554 16.8448 23.4942 17.8247 23.6037C18.2096 23.6466 18.8539 23.6134 19.5293 23.1219C20.0835 23.872 20.3906 24.787 20.3906 25.7329C20.3906 28.1539 18.421 30.1234 16.0001 30.1234ZM21.5433 28.6541C22.0051 27.7813 22.2672 26.7872 22.2672 25.7329C22.2672 23.9562 21.5085 22.2561 20.1858 21.0684L19.4163 20.3776L18.8033 21.2104C18.6472 21.4225 18.3393 21.7736 18.0333 21.7388C17.7905 21.7117 17.4364 21.4345 17.1927 20.8764C16.8556 20.105 16.7873 18.8854 17.6058 17.7763L18.9046 16.0161L16.7341 16.2881C16.6609 16.2973 14.9219 16.5276 13.1974 17.8236C10.3343 19.9755 9.7332 23.3124 9.7332 25.7329C9.7332 26.7874 9.99538 27.7817 10.4574 28.6547C7.07382 26.7222 4.78795 23.0788 4.78795 18.9111C4.78795 18.5556 4.8047 18.2009 4.83795 17.8483C5.47076 18.4479 6.32863 19.1462 7.42082 19.7942L9.05126 20.7609L8.83145 18.8778C8.8272 18.8413 8.4162 15.1791 9.38451 11.2828C10.4917 6.82725 12.8726 3.91619 16.4723 2.60812C15.9703 5.087 15.9438 7.31788 16.4023 9.1295C16.9157 11.1578 18.0474 12.6124 19.5072 13.1202C20.522 13.4733 21.6156 13.3421 22.5871 12.7507C23.1463 12.4104 23.6521 11.9259 24.087 11.3194C25.0264 12.997 25.3839 14.7419 25.1504 16.5229C24.9296 18.2076 24.2363 19.3082 24.2316 19.3156L23.4289 20.5471L24.8838 20.7567C25.6163 20.8622 26.3813 20.7011 27.1284 20.2887C26.6871 23.8725 24.5479 26.9379 21.5433 28.6541Z" fill="#F1A800"/>
</g>
<defs>
<clipPath id="clip0_18_430">
<rect width="32" height="32" fill="white"/>
</clipPath>
</defs>
</svg>
