<svg width="32" height="31" viewBox="0 0 32 31" fill="none" xmlns="http://www.w3.org/2000/svg">
<path id="Star 3" d="M15.1402 1.44742C15.5278 0.795015 16.4722 0.795014 16.8598 1.44742L21.3359 8.98308C21.4762 9.21933 21.7076 9.38742 21.9757 9.44788L30.5257 11.3763C31.2659 11.5433 31.5578 12.4415 31.0571 13.0117L25.2734 19.5974C25.0921 19.8039 25.0037 20.0758 25.0291 20.3495L25.8371 29.0769C25.9071 29.8325 25.143 30.3877 24.446 30.0877L16.3954 26.6222C16.143 26.5136 15.857 26.5135 15.6046 26.6222L7.55399 30.0877C6.85699 30.3877 6.0929 29.8325 6.16286 29.0769L6.97093 20.3495C6.99626 20.0758 6.90789 19.8039 6.72657 19.5974L0.942937 13.0117C0.442214 12.4415 0.734071 11.5433 1.4743 11.3763L10.0243 9.44788C10.2924 9.38742 10.5238 9.21933 10.6641 8.98308L15.1402 1.44742Z" fill="#F1A800"/>
</svg>
