<svg width="34" height="34" viewBox="0 0 34 34" fill="none" xmlns="http://www.w3.org/2000/svg">
<path d="M16.1402 1.44742C16.5278 0.795015 17.4722 0.795014 17.8598 1.44742L22.3359 8.98308C22.4762 9.21933 22.7076 9.38742 22.9757 9.44788L31.5257 11.3763C32.2659 11.5433 32.5578 12.4415 32.0571 13.0117L26.2734 19.5974C26.0921 19.8039 26.0037 20.0758 26.0291 20.3495L26.8371 29.0769C26.9071 29.8325 26.143 30.3877 25.446 30.0877L17.3954 26.6222C17.143 26.5136 16.857 26.5135 16.6046 26.6222L8.55399 30.0877C7.85699 30.3877 7.0929 29.8325 7.16286 29.0769L7.97093 20.3495C7.99626 20.0758 7.90789 19.8039 7.72657 19.5974L1.94294 13.0117C1.44221 12.4415 1.73407 11.5433 2.4743 11.3763L11.0243 9.44788C11.2924 9.38742 11.5238 9.21933 11.6641 8.98308L16.1402 1.44742Z" fill="#F1A800"/>
<mask id="mask0_404_18" style="mask-type:alpha" maskUnits="userSpaceOnUse" x="17" y="0" width="17" height="31">
<rect width="17" height="31" rx="1" transform="matrix(-1 0 0 1 34 0)" fill="#D9D9D9"/>
</mask>
<g mask="url(#mask0_404_18)">
<path d="M17 1.95812L12.5238 9.49377C12.2432 9.96627 11.7805 10.3025 11.2444 10.4234L2.69432 12.3518L8.47795 18.9375C8.84059 19.3505 9.01733 19.8944 8.96667 20.4416L8.1586 29.1691L16.2092 25.7037C16.714 25.4864 17.286 25.4864 17.7908 25.7037L25.8414 29.1691L25.0333 20.4416C24.9827 19.8944 25.1594 19.3505 25.5221 18.9375L31.3057 12.3518L22.7556 10.4234C22.2195 10.3025 21.7568 9.96627 21.4762 9.49377L17 1.95812Z" fill="white" stroke="#828282" stroke-width="2"/>
</g>
</svg>
