<svg width="18" height="16" viewBox="0 0 18 16" fill="none" xmlns="http://www.w3.org/2000/svg">
<path d="M0.964621 7.80858L4.75805 9.22307L6.23683 13.9809C6.30113 14.3024 6.6869 14.3667 6.94408 14.1738L9.06582 12.4378C9.2587 12.2449 9.58018 12.2449 9.83737 12.4378L13.6308 15.2025C13.888 15.3954 14.2737 15.2668 14.338 14.9453L17.167 1.44335C17.2313 1.12188 16.9098 0.800405 16.5884 0.928996L0.964621 6.97274C0.57885 7.10133 0.57885 7.67999 0.964621 7.80858ZM6.04395 8.51582L13.5022 3.95087C13.6308 3.88657 13.7594 4.07946 13.6308 4.14375L7.52274 9.86602C7.32985 10.0589 7.13696 10.3161 7.13696 10.6376L6.94408 12.1806C6.94408 12.3735 6.6226 12.4378 6.55831 12.1806L5.78676 9.35166C5.59387 9.03019 5.72248 8.64441 6.04395 8.51582Z" fill="#2F89CE"/>
</svg>
