<svg width="18" height="18" viewBox="0 0 18 18" fill="none" xmlns="http://www.w3.org/2000/svg">
<path d="M15.0396 2.95155C13.4097 1.32733 11.2366 0.424988 8.94268 0.424988C4.17378 0.424988 0.310365 4.27499 0.310365 9.02733C0.310365 10.5312 0.732927 12.0351 1.45732 13.2984L0.25 17.75L4.8378 16.5469C6.10549 17.2086 7.4939 17.5695 8.94268 17.5695C13.7116 17.5695 17.575 13.7195 17.575 8.96717C17.5146 6.74139 16.6695 4.57577 15.0396 2.95155ZM13.1079 12.0953C12.9268 12.5765 12.0817 13.0578 11.6591 13.118C11.2969 13.1781 10.814 13.1781 10.3311 13.0578C10.0293 12.9375 9.6067 12.8172 9.12378 12.5765C6.95061 11.6742 5.56219 9.50858 5.44146 9.32811C5.32073 9.2078 4.53598 8.18514 4.53598 7.10233C4.53598 6.01952 5.07927 5.53827 5.26036 5.29764C5.44146 5.05702 5.68292 5.05702 5.86402 5.05702C5.98475 5.05702 6.16585 5.05702 6.28658 5.05702C6.40731 5.05702 6.58841 4.99686 6.76951 5.41795C6.95061 5.83905 7.37317 6.92186 7.43353 6.98202C7.4939 7.10233 7.4939 7.22264 7.43353 7.34295C7.37317 7.46327 7.3128 7.58358 7.19207 7.70389C7.07134 7.8242 6.9506 8.00467 6.89024 8.06483C6.76951 8.18514 6.64878 8.30545 6.76951 8.48592C6.89024 8.72655 7.3128 9.38826 7.97683 9.98983C8.82195 10.7117 9.48597 10.9523 9.72744 11.0726C9.9689 11.193 10.0896 11.1328 10.2104 11.0125C10.3311 10.8922 10.7537 10.4109 10.8744 10.1703C10.9951 9.92967 11.1762 9.98983 11.3573 10.05C11.5384 10.1101 12.625 10.6515 12.8061 10.7719C13.0476 10.8922 13.1683 10.9523 13.2287 11.0125C13.289 11.193 13.289 11.614 13.1079 12.0953Z" fill="#48C95F"/>
</svg>
