<svg width="311" height="72" viewBox="0 0 311 72" fill="none" xmlns="http://www.w3.org/2000/svg">
<path fill-rule="evenodd" clip-rule="evenodd" d="M76.8026 31.7295V62.941L86.2964 59.5738V22.923C86.2964 21.7574 85.7832 20.7213 84.7569 19.9443C83.7305 19.2967 82.5759 19.0377 81.5495 19.4262L62.5619 26.1607L56.5321 28.2328C54.3511 29.0098 53.0681 30.9525 53.0681 33.1541V71.2295L62.5619 67.8623V36.6508" fill="#F1A800"/>
<path fill-rule="evenodd" clip-rule="evenodd" d="M48.1931 71.359V60.8688L24.3303 52.5803V31.859L48.1931 40.277V29.7869L21.7645 20.5918C20.0966 19.9443 18.4288 20.2033 16.8893 21.2393C15.478 22.2754 14.7083 23.8295 14.7083 25.6426V56.077C14.7083 58.4082 16.1195 60.3508 18.3005 61.1279L24.3303 63.2" fill="#151616"/>
<path fill-rule="evenodd" clip-rule="evenodd" d="M77.5725 14.7639L50.6306 5.30984L63.2035 0.906559C66.6674 -0.259014 70.0031 -0.259014 73.4671 0.906559L100.409 10.3607L93.9942 12.5623L87.836 14.7639C84.3721 15.9295 81.0364 15.9295 77.5725 14.7639Z" fill="#151616"/>
<path fill-rule="evenodd" clip-rule="evenodd" d="M23.5606 14.7639L50.6307 5.30984L38.0578 0.906559C34.5939 -0.259014 31.2582 -0.259014 27.7943 0.906559L0.724121 10.3607L7.13885 12.5623L13.297 14.7639C16.7609 15.9295 20.0966 15.9295 23.5606 14.7639Z" fill="#F1A800"/>
<path fill-rule="evenodd" clip-rule="evenodd" d="M298.367 49.4721H293.749V31.4705H298.367V38.3344L304.141 31.4705H309.657L302.729 39.759L310.94 49.4721H305.424L298.496 41.4426L298.367 49.4721ZM282.074 37.0393L280.278 41.8311H283.998L282.074 37.0393ZM277.327 49.4721H272.452L279.893 31.341H284.255L291.696 49.4721H286.821L285.281 45.7164H278.61L277.327 49.4721ZM259.622 49.4721H255.004V31.4705H270.399V49.4721H265.781V35.4853H259.494V49.4721H259.622ZM237.941 34.0607V31.4705H252.566V34.0607H246.665V49.4721H243.842V34.0607H237.941ZM225.24 34.0607V39.3705H229.858C230.885 39.3705 231.783 39.1115 232.296 38.723C232.937 38.2049 233.194 37.5574 233.194 36.7803C233.194 35.8738 232.937 35.2262 232.296 34.8377C231.654 34.3197 230.885 34.1902 229.858 34.1902H225.24V34.0607ZM225.24 49.4721H222.417V31.4705H230.115C232.039 31.4705 233.45 31.9885 234.477 32.8951C235.503 33.8016 236.016 35.0967 236.016 36.6508C236.016 38.2049 235.503 39.5 234.477 40.5361C233.45 41.5721 232.039 42.0902 230.115 42.0902H225.24V49.4721ZM210.486 34.8377L207.278 42.3492H213.821L210.486 34.8377ZM204.328 49.4721H201.377L209.203 31.341H211.897L219.723 49.4721H216.772L214.848 44.9393H206.252L204.328 49.4721ZM185.981 46.882H194.705V34.0607H188.419C188.419 37.0393 188.291 39.6295 187.906 41.5721C187.521 43.6443 186.879 45.3279 185.981 46.882ZM183.929 53.2279H181.235V46.7525H182.902C183.8 45.3279 184.57 43.6443 184.955 41.7016C185.34 39.759 185.597 37.0393 185.597 33.8016V31.341H197.4V46.7525H199.966V53.2279H197.271V49.3426H183.929V53.2279ZM166.609 49.4721H163.786V31.4705H166.609V38.5934H175.846V31.4705H178.669V49.4721H175.846V41.1836H166.609V49.4721ZM151.855 34.8377L148.648 42.3492H155.191L151.855 34.8377ZM145.697 49.4721H142.746L150.572 31.341H153.266L161.092 49.4721H158.141L156.217 44.9393H147.75L145.697 49.4721ZM129.275 34.0607V31.4705H143.901V34.0607H137.999V49.4721H135.177V34.0607H129.275ZM121.962 49.7312C119.268 49.7312 117.087 48.8246 115.291 47.141C113.495 45.3279 112.597 43.1262 112.597 40.4066C112.597 37.6869 113.495 35.4852 115.291 33.6721C117.087 31.859 119.268 31.082 121.962 31.082C123.759 31.082 125.426 31.4705 126.838 32.2475V35.0967C125.426 34.1902 123.759 33.6721 121.962 33.6721C120.038 33.6721 118.498 34.3197 117.216 35.6148C115.933 36.9098 115.291 38.4639 115.291 40.4066C115.291 42.3492 115.933 43.9033 117.216 45.1984C118.498 46.4934 120.038 47.0115 121.962 47.0115C124.015 47.0115 125.683 46.4934 127.094 45.3279V48.177C125.683 49.2131 124.015 49.7312 121.962 49.7312Z" fill="#151616"/>
</svg>
